<svg xmlns="http://www.w3.org/2000/svg" fill="none" viewBox="27 27 457.89 458">
<path d="M84.9 29.9L82 32.8V57.4V82H57.4H32.8L29.9 84.9L27 87.8V283.5V479.2L29.9 482.1L32.8 485H192H351.2L354.1 482.1L357 479.2V454.6V430H372.1C380.4 430 388 429.5 389 429C393.1 426.8 393.5 424.4 394 398.6L394.5 373.6L401.7 371.9C422 366.9 439.3 356.7 454.6 340.9C491.6 302.3 495.1 242.3 462.9 198.9C452.9 185.4 437.2 172.7 421.7 165.5C414.7 162.3 398.4 157 395.4 157C394.2 157 394 152.8 394 133.1C394 118.9 393.6 108 393 106.3C391.8 103.1 320 30.6 315.8 28.4C313.5 27.2 296.4 27 200.5 27H87.8L84.9 29.9ZM301.2 80.1L301.5 114.2L304.3 116.6L307.1 119H340.6H374V136.9V154.7L365.8 155.4C317.2 159.2 276.8 195 267 243C263.9 257.7 264.6 280 268.4 293.9C273.7 312.9 283.1 329.1 297 343C315.6 361.6 340.2 373 365.3 374.7L374 375.3V393.1V411H237.5H101V228.5V46H201H300.9L301.2 80.1ZM340.5 80L360.5 100H340.2H320V80C320 69 320.1 60 320.3 60C320.4 60 329.5 69 340.5 80ZM82 262.7C82.1 388.3 82.3 424.9 83.3 426.1C86.3 430 84.8 430 213.4 430H338V448V466H192H46V283.5V101H64H82V262.7ZM396.1 176.9C440.5 188.2 470.5 230.8 465.1 274.7C459.2 322.7 418.5 357.9 371.5 355.7C357.5 355 347.2 352.3 334.5 346.1C311.4 334.7 293.7 312.9 286.8 287.5C284 277 283.7 255 286.3 244.7C294 213.9 316.2 189.5 345.7 179.4C351.1 177.6 358.4 175.6 362 175.1C371 173.7 387 174.6 396.1 176.9Z" fill="black"/>
<path d="M139.6 84.6C135.7 88.6 135.9 94.9 140.1 98.4L143.2 101H200.5C236.1 101 258.9 100.6 260.5 100C264.2 98.6 266.4 92.9 265 88.4C262.8 81.7 265.7 82 200.9 82H142.3L139.6 84.6Z" fill="black"/>
<path d="M139.5 139.5C135.8 143.1 136 149.2 139.9 153.1L142.8 156H200.5C264.4 156 262.8 156.2 265 149.6C266.3 145.5 264.4 139.8 261.2 138.1C259.8 137.3 240.6 137 200.5 137H141.9L139.5 139.5Z" fill="black"/>
<path d="M139.5 194.5C136.1 197.8 136.1 203.8 139.4 207.7L141.8 210.5L172.1 210.8C193.7 211 203.2 210.7 205.2 209.9C211.1 207.5 212.5 199.3 207.8 194.3L205.7 192H173.8H141.9L139.5 194.5Z" fill="black"/>
<path d="M195.5 247.1C193.6 247.7 187.4 253.1 178 262.4L163.6 276.9L156.9 270.5C151 264.7 149.7 264 146.2 264C140.3 264 137 267.5 137 273.6C137 278.3 137.1 278.4 147.8 289.2C158.7 300 158.7 300 163.6 300H168.4L188.2 280.2C207.5 260.9 208 260.3 208 256.3C208 249.4 202.4 245.3 195.5 247.1Z" fill="black"/>
<path d="M178.6 334.9L163.5 349.9L156.9 343.4C151.5 338.3 149.6 337 147 337C140.5 337 137.1 340.4 137 346.9C137 351.1 137.4 351.7 147.2 361.6C158.5 373.2 161.8 375 167.2 372.7C169 371.9 178.9 362.7 189.3 352.3C207.4 334 208 333.2 208 329.3C208 323.5 204.3 320 198.2 320C193.8 320 193.6 320.2 178.6 334.9Z" fill="black"/>
<path d="M387 253.5L360.5 279.9L348.4 268C336.5 256.2 336.3 256 331.8 256C327.9 256 326.8 256.5 324.6 259.1C321.7 262.5 321.3 265.8 323.4 269.8C324.2 271.3 331.8 279.4 340.2 287.7L355.6 303H360.5H365.4L395.3 273.2C411.7 256.9 425.8 242.2 426.7 240.6C430.1 234.1 425.4 227 417.7 227C413.7 227 413.1 227.5 387 253.5Z" fill="black"/>
</svg>