<svg xmlns="http://www.w3.org/2000/svg" fill="none" viewBox="8 8 496 496">
<path d="M10 9.99999C8 12 8 13.3 8 219.6C8 349.6 8.4 427.8 9 428.9C10.3 431.4 171.7 504 176 504C178.1 504 206.5 491.7 257 469C299.8 449.8 335.3 434 336 434C336.7 434 372.2 449.8 415 469C471 494.2 493.8 504 496.4 504C498.7 504 500.7 503.3 502 502C504 500 504 498.7 504 292.4C504 162.4 503.6 84.2 503 83.1C501.7 80.6 340.3 7.99999 336 7.99999C333.9 7.99999 305.5 20.3 255 43C212.2 62.3 176.7 78 176 78C175.3 78 139.8 62.2 97 43C41 17.8 18.2 7.99999 15.6 7.99999C13.3 7.99999 11.3 8.69999 10 9.99999ZM99.5 63C136.4 79.6 166.8 93.5 167.3 93.9C167.7 94.3 167.9 181.9 167.8 288.7L167.5 482.7L96 450.5L24.5 418.4L24.2 223.7L24 29.1L28.2 30.9C30.6 31.9 62.6 46.4 99.5 63ZM327.3 418.1C326.7 418.7 222.4 465.9 189.2 480.6L184 482.9L184.2 288.3L184.5 93.6L256 61.5L327.5 29.3L327.8 223.3C327.9 330.1 327.7 417.7 327.3 418.1ZM420.5 63.5C456.8 79.8 486.8 93.5 487.3 93.9C487.7 94.3 487.9 181.9 487.8 288.7L487.5 482.7L416 450.5L344.5 418.4L344.2 223.7L344 29.1L349.2 31.4C352.1 32.7 384.2 47.1 420.5 63.5Z" fill="black"/>
<path d="M42 66C40 68 40 69.3 40 123.8C40 166.9 40.3 180 41.3 181.3C43.2 184 139.7 223.9 144.3 224C146.7 224 148.7 223.3 150 222C152 220 152 218.7 152 164.2C152 121.1 151.7 108 150.8 106.7C148.8 104 52.3 64.1 47.8 64C45.3 64 43.3 64.7 42 66ZM96.1 101.4L135.5 117.8L135.8 160.4C135.9 183.8 135.8 203 135.6 203C135.4 203 117.5 195.6 95.9 186.6L56.5 170.2L56.2 127.6C56.1 104.2 56.2 85 56.4 85C56.6 85 74.5 92.4 96.1 101.4Z" fill="black"/>
<path d="M50.1 209.8C49.6 210.7 48.1 214.3 46.7 217.7L44.2 223.8L92.7 244C119.3 255.1 141.2 264.1 141.4 263.9C141.9 263.2 147.9 248.5 147.7 248.4C147.6 248.3 127.5 239.9 103 229.7C78.5 219.5 56.8 210.4 54.8 209.6C51.3 208.1 51 208.1 50.1 209.8Z" fill="black"/>
<path d="M50.1 249.8C49.6 250.7 48.1 254.3 46.7 257.7L44.2 263.8L92.7 284C119.3 295.1 141.2 304.1 141.4 303.9C141.9 303.2 147.9 288.5 147.7 288.4C147.6 288.3 127.5 279.9 103 269.7C78.5 259.5 56.8 250.4 54.8 249.6C51.3 248.1 51 248.1 50.1 249.8Z" fill="black"/>
<path d="M50.1 289.8C49.6 290.7 48.1 294.3 46.7 297.7L44.2 303.8L92.7 324C119.3 335.1 141.2 344.1 141.4 343.9C141.9 343.2 147.9 328.5 147.7 328.4C147.6 328.3 127.5 319.9 103 309.7C78.5 299.5 56.8 290.4 54.8 289.6C51.3 288.1 51 288.1 50.1 289.8Z" fill="black"/>
<path d="M50.1 329.8C49.6 330.7 48.1 334.3 46.7 337.7L44.2 343.8L92.6 364C119.3 375.2 141.2 384.1 141.4 383.9C141.9 383.3 147.9 368.5 147.7 368.4C147.6 368.3 127.5 359.9 103 349.7C78.5 339.5 56.8 330.4 54.8 329.6C51.3 328.1 51 328.1 50.1 329.8Z" fill="black"/>
<path d="M251.8 148.2L204.2 168.3L207.4 175.9C209.5 180.8 211.2 183.4 212.1 183.2C212.9 183.1 234.7 174.1 260.7 163.3L307.9 143.7L305.8 138.6C304.7 135.8 303.2 132.3 302.6 130.7C302.1 129.2 301.1 128.1 300.5 128.1C300 128.2 278.1 137.2 251.8 148.2Z" fill="black"/>
<path d="M252.5 188C199.4 210.3 203.6 207.5 208.4 218.3L210.9 224L215.7 222.1C223.4 219 307.4 183.9 307.6 183.7C308.2 183.1 301.3 168 300.5 168.1C300 168.2 278.4 177.1 252.5 188Z" fill="black"/>
<path d="M252.5 228C199.4 250.3 203.6 247.5 208.4 258.3L210.9 264L215.7 262.1C223.4 259 307.4 223.9 307.6 223.7C308.2 223.1 301.3 208 300.5 208.1C300 208.2 278.4 217.1 252.5 228Z" fill="black"/>
<path d="M254 267.5C228.4 278.1 206.8 287.3 206 287.8C204.8 288.5 205 289.7 207.4 295.8C208.9 299.8 210.5 303.2 210.9 303.4C211.4 303.7 306.7 264.6 307.6 263.7C308 263.3 301.5 248 301 248C300.7 248 279.6 256.8 254 267.5Z" fill="black"/>
<path d="M251.5 308.5C224.6 319.8 201.9 329.7 201.3 330.7C200.3 332 200 345.1 200 388.2C200 442.7 200 444 202 446C203.3 447.3 205.3 448 207.8 448C212.3 447.9 308.8 408 310.8 405.3C311.7 404 312 390.9 312 347.8C312 293.3 312 292 310 290C306.1 286.1 302.8 287.1 251.5 308.5ZM295.8 351.6L295.5 394.2L256.1 410.6C234.5 419.6 216.6 427 216.4 427C216.2 427 216.1 407.8 216.2 384.4L216.5 341.8L255.5 325.5C277 316.5 294.8 309.1 295.3 309.1C295.7 309 295.9 328.2 295.8 351.6Z" fill="black"/>
<path d="M362 66C360 68 360 69.3 360 123.8C360 166.9 360.3 180 361.3 181.3C363.2 184 459.7 223.9 464.3 224C466.7 224 468.7 223.3 470 222C472 220 472 218.7 472 164.2C472 121.1 471.7 108 470.8 106.7C468.8 104 372.3 64.1 367.8 64C365.3 64 363.3 64.7 362 66ZM416.1 101.4L455.5 117.8L455.8 160.4C455.9 183.8 455.8 203 455.6 203C455.4 203 437.5 195.6 415.9 186.6L376.5 170.2L376.2 127.6C376.1 104.2 376.2 85 376.4 85C376.6 85 394.5 92.4 416.1 101.4Z" fill="black"/>
<path d="M368.4 213.8C363.6 224.5 359.3 221.6 413 244.1C439.1 255 460.7 264 461 264C461.6 264 468.1 248.8 467.7 248.4C467.5 248.2 376.8 210.3 373.2 208.9C371.2 208.1 370.7 208.6 368.4 213.8Z" fill="black"/>
<path d="M368.4 253.7C363.6 264.6 359.3 261.7 413 284.1C439.1 295.1 460.8 304 461.1 304C461.7 304 468.2 288.8 467.8 288.4C467.6 288.3 447.5 279.9 423 269.7C398.5 259.5 376.8 250.4 374.7 249.5L371 248L368.4 253.7Z" fill="black"/>
<path d="M368.4 293.7C363.6 304.6 359.3 301.7 413 324.1C439.1 335.1 460.8 344 461.1 344C461.7 344 468.2 328.8 467.8 328.4C467.6 328.3 447.5 319.9 423 309.7C398.5 299.5 376.8 290.4 374.7 289.5L371 288L368.4 293.7Z" fill="black"/>
<path d="M370.2 329.8C367.3 335.5 364.8 343.2 365.6 344C366.8 345.1 461 384.3 461.4 383.9C462.1 383.1 468 368.7 467.8 368.4C467.6 368.3 447.5 359.9 423 349.7C398.5 339.5 376.8 330.4 374.8 329.6C371.3 328.1 371 328.1 370.2 329.8Z" fill="black"/>
</svg>