<svg xmlns="http://www.w3.org/2000/svg" fill="none" viewBox="8.12 8 495.88 496">
<path d="M451 8.99999C450.1 9.39999 447.9 13 446 16.9C442.8 23.7 442.5 24 439.1 24C435.9 24 434.1 25.5 417.8 41.8L400 59.6V65.8V72H394C388.3 72 387.7 72.3 383.6 76C380.1 79.2 378.5 80 375.4 80C371.7 80 370.5 81.1 337.8 113.7L304.1 147.3L294.8 138.4C279.4 123.7 269 119.4 250.6 120.2C236.1 120.9 231.8 122.6 212.7 135.2C169.7 163.7 150.4 180.8 74.4 257.1C26.6 305.3 22.5 309.9 16 324.6C10.4 337 8.8 344.2 8.3 360.1C7.9 371.4 8.1 376.6 9.4 383C12.5 398.2 19.4 412.7 29.5 425C38.6 436.1 87 483.3 94 487.8C111.6 499.3 127.4 504 148.3 504C162.7 504 173.6 501.8 185.7 496.7C201.5 490 205.6 486.5 254.4 438.1C330.7 362.2 349 341.5 376.9 299.1C389.6 279.8 391.1 275.8 391.8 261.4C392.6 243 388.3 232.6 373.6 217.2L364.7 207.9L398.3 174.2C430.9 141.5 432 140.3 432 136.6C432 133.5 432.8 131.9 436 128.4C439.7 124.3 440 123.7 440 118V112H446.2H452.4L470.2 94.2C486.5 77.9 488 76.1 488 72.9C488 69.5 488.3 69.2 495.1 66C499 64.1 502.6 61.8 503.1 60.8C503.6 59.9 504 48.5 504 35.6C504 13.3 503.9 11.9 502 9.99999C500.1 8.09999 498.7 7.99999 476.3 7.99999C463.2 7.99999 451.8 8.49999 451 8.99999ZM488 37.3V50.6L480.9 54C473.2 57.8 472 59.1 472 64.2C472 67.1 470.3 69.2 457.8 81.7L443.5 96H435.8C425.2 96 424 97.2 424 107.6C424 115.2 423.9 115.3 420 119.6C416.8 123.1 416 124.7 416 127.7C416 131.4 414.7 132.8 384 163.5L352 195.5L346.3 189.7L340.5 184L371.5 153L402.5 122L396.2 115.8L390 109.5L359 140.5L328 171.5L322.3 165.7L316.5 160L348.5 128C379.2 97.3 380.6 96 384.3 96C387.3 96 388.9 95.2 392.4 92C396.7 88.1 396.8 88 404.4 88C414.8 88 416 86.8 416 76.3V68.5L430.2 54.3C442.9 41.6 444.9 40 447.8 40C452.9 40 454.2 38.8 458 31.1L461.4 24H474.7H488V37.3ZM269.6 140.8C278.2 145.5 368.5 235.9 372 243.5C375 250 375.9 263.5 373.7 269.8C369 283.2 339.4 324.1 313.4 353C297.5 370.6 197.5 470.1 191.7 473.9C164.8 492 128.8 491.4 102.6 472.6C95.1 467.1 42.5 414.3 38.1 407.7C20.5 381.6 20.5 346.4 38.1 320.3C41.9 314.5 141.4 214.5 159 198.6C187.1 173.3 228.2 143.4 241.7 138.4C244.2 137.4 248.5 137.1 254.5 137.3C262.4 137.6 264.2 138 269.6 140.8Z" fill="black"/>
<path d="M215 185.5C207 187.8 198.3 192.1 191.5 197.3C188.2 199.8 161.6 225.8 132.4 255.2C81.1 306.8 79.3 308.7 75.9 316C72.6 323.3 72.5 323.9 72.5 336C72.5 348.4 72.5 348.6 76.3 356.5C80 364.2 81.5 365.9 113.8 398.2C146.1 430.5 147.8 432 155.5 435.7C163.4 439.5 163.6 439.5 176.1 439.5C188.6 439.5 188.6 439.5 196.6 435.6C204.3 431.9 206 430.3 260 376.1C319.7 316.4 320.6 315.3 325.3 300.5C328.5 290.4 328.5 269.6 325.3 259.5C321.1 246.4 317.2 241.1 294 218C271.6 195.6 266.9 192 254.2 187.2C248.5 185.1 245.5 184.6 234 184.4C224.1 184.1 219 184.4 215 185.5ZM252.5 205.3C259.9 208.8 262 210.7 281.7 230.3C301.3 249.9 303.2 252.1 306.7 259.5C310.5 267.4 310.5 267.6 310.5 280C310.5 292.4 310.5 292.6 306.7 300.4C303.2 307.7 301.2 310.1 283.5 327.9L264.1 347.5L255.1 338.6C247.1 330.6 246.3 329.5 247.1 327.3C248.9 322.4 248.2 312.7 245.5 307.4C242.2 300.7 210.3 268.9 204 266.1C199.2 263.9 189 263.3 184.7 264.9C182.5 265.7 181.4 264.9 173.4 256.9L164.5 247.9L184 228.6C209.4 203.4 214 200.8 233.5 201.3C243.9 201.5 244.9 201.7 252.5 205.3ZM161.2 269.7C168.3 277 169.7 278.8 169 280.5C168.5 281.6 168.1 285.4 168.1 289.1C168 299.4 170.3 302.8 190.2 322.7C202 334.4 208.9 340.5 212 341.9C216.8 344.1 227 344.7 231.3 343.1C233.5 342.3 234.6 343.1 242.6 351.1L251.5 360L223 388.6C189.9 421.7 188.9 422.5 176 422.5C162.9 422.5 162.5 422.2 124.9 384.3C89 348.2 89 348.2 89 336C89 323.9 89.3 323.5 121.9 290.7C138.1 274.4 151.7 261 152 261C152.3 261 156.4 264.9 161.2 269.7ZM213.7 298.2C229.4 313.9 231 315.8 231 318.9C231 323.7 227.7 327 223.1 327C219.8 327 218.1 325.6 202.3 309.8C186.6 294.1 185 292.2 185 289.1C185 284.3 188.3 281 192.9 281C196.2 281 197.9 282.4 213.7 298.2Z" fill="black"/>
<path d="M241.8 227.9C235.9 229.8 232.1 233.1 229.4 238.6C227.1 243.3 226.8 244.9 227.3 250.1C228.8 267.2 244.9 283.2 262 284.7C270.3 285.5 277.8 281.9 281.8 275.2C285.6 268.6 285.6 259 281.8 250.7C276 238.2 262.5 228.2 250.4 227.4C247.1 227.2 243.3 227.5 241.8 227.9ZM254.9 246.5C260.7 249.4 264.2 253.3 266.6 259.6C269.6 267.5 265.8 270 257.3 265.7C251.4 262.7 248.7 259.9 246.1 254C243.7 248.8 243.5 246.9 245.2 245.2C247 243.4 249.5 243.7 254.9 246.5Z" fill="black"/>
<path d="M145.8 323.9C136.2 327 131.5 333.8 131.5 344.5C131.5 350.4 132 352.6 134.7 358.1C140.8 370.4 153.5 379.6 166 380.7C174.3 381.5 181.8 377.9 185.8 371.2C189.6 364.6 189.6 355 185.8 346.7C180 334.2 166.5 324.2 154.4 323.4C151.1 323.2 147.3 323.5 145.8 323.9ZM161.1 343.5C171 350 175.6 364 167.8 364C165.1 364 156.9 359.6 154.4 356.8C151.4 353.6 148 347 148 344.5C148 339.3 154.1 338.8 161.1 343.5Z" fill="black"/>
</svg>