<svg xmlns="http://www.w3.org/2000/svg" fill="none" viewBox="0 0 512 512">
<g clip-path="url(#clip0_2_57)">
<path d="M230.5 1.59989C197.1 7.79989 170.4 21.5999 147.5 44.4999C134.2 57.8999 125.7 69.5999 118 85.4999C108.1 105.8 103.4 123.8 102.3 145.1L101.7 156.7L98.1 158.3C91.8 161.1 84.6 168.4 80.8 175.7C78.8 179.4 73.8 192.9 69.6 205.7L61.9 228.9L57.3 226C51 222 43.6 220.7 30.5 221.2C18 221.7 12.7 223.5 7.1 229.1C2 234.1 0 239.3 0 247.5C0 255.9 2.1 260.9 7.6 266.2C12.9 271.3 17.8 273.1 28.2 273.7L37.1 274.3L20.1 291.4C9.7 301.9 2.5 310 1.5 312.2C0.2 315.4 0 324.4 0 379C0 441.2 0 442.1 2.1 446.3C4.8 451.7 8.6 455.7 13.2 458.1L17 460V476.6C17 488.5 17.4 494 18.4 496.4C20.4 501.3 26.5 507.6 31.4 509.9C35.4 511.9 37.3 512 72.3 512C113.1 512 112.6 512.1 120 505.3C127.1 499 128 496 128 477.2V461H256H384V477C384 495.2 384.7 498 390.8 504.4C398.1 512 397.9 512 439.4 512C474.7 512 476.6 511.9 480.6 509.9C485.5 507.6 491.6 501.3 493.6 496.4C494.6 494 495 488.5 495 476.6V460L498.8 458.1C503.7 455.6 507.4 451.5 509.9 446C511.9 441.6 512 439.7 512 378.7C512 324.3 511.8 315.4 510.5 312.2C509.5 310 502.3 301.9 491.9 291.4L474.9 274.3L483.8 273.7C494.2 273.1 499.1 271.3 504.4 266.2C509.9 260.9 512 255.9 512 247.5C512 239.3 510 234.1 504.9 229.1C499.3 223.5 494 221.7 481.5 221.2C468.4 220.7 461 222 454.7 226L450.1 228.9L442.4 205.7C438.2 192.9 433.4 179.8 431.8 176.6C428.3 169.6 420.2 161.2 414.4 158.4L410.3 156.5L409.7 144.9C408.6 123.8 403.9 105.8 394 85.4999C386.3 69.5999 377.9 57.8999 364.5 44.4999C343.3 23.1999 318 9.49989 287 2.49989C276.3 0.0998947 241.5 -0.500105 230.5 1.59989ZM287.9 21.3999C327.7 31.4999 360.2 57.6999 378 94.2999C388.4 115.7 392.7 136.5 391.6 159.5C388.7 223.3 342 276.4 279 287.6C266.5 289.8 245.5 289.8 233 287.6C178 277.8 135.1 236.3 122.9 180.9C119.8 167.3 119.6 142.3 122.3 128.7C132.3 79.0999 167.1 39.6999 214.3 24.4999C230.9 19.0999 238.8 17.9999 259.5 18.3999C274.9 18.6999 279 19.1999 287.9 21.3999ZM104.9 183.2C109.3 206.5 122.9 235.3 137.2 251.5L141.2 256H106.7H72.2L83.4 222.2C89.6 203.7 95.5 186.9 96.5 185C98.3 181.3 101.9 177 103 177C103.4 177 104.3 179.8 104.9 183.2ZM413.7 182.3C415.8 185.5 420.5 197.9 428.3 221.5L439.8 256H405.3H370.8L375.3 250.7C390 233.5 401.3 209.6 406.6 185.2C407.6 180.5 408.8 177.1 409.4 177.3C410 177.5 411.9 179.7 413.7 182.3ZM44.9 240.1C48.9 241.5 51 245.5 51 251.5V256.2L37.1 255.8C24 255.5 23 255.4 20.6 253.1C16.1 248.9 17.9 241.9 24 239.7C26.8 238.7 41.7 239 44.9 240.1ZM491.4 241.9C494.9 245.2 494.9 249.8 491.4 253.1C489 255.4 488 255.5 474.9 255.8L461 256.2V251.6C461 241.4 464.7 238.9 479.2 239.2C487.8 239.5 489.1 239.8 491.4 241.9ZM170.3 281.5C193.4 296.8 215.4 304.5 243.9 307.1C279 310.3 317.2 299.6 346.2 278.5L352.4 274H400.4H448.5L471.2 296.7L494 319.5V379.2V438.9L491.4 440.9L488.7 443H256H23.3L20.6 440.9L18 438.9V379.2V319.5L40.7 296.8L63.5 274H111.3H159.1L170.3 281.5ZM110 475.2C110 488.4 109.8 489.5 107.8 491.7L105.7 494H72.6C31.4 494 35 495.8 35 475.3V461H72.5H110V475.2ZM477 475.2C477 488.4 476.8 489.5 474.8 491.7L472.7 494H439.6C398.4 494 402 495.8 402 475.3V461H439.5H477V475.2Z" fill="black"/>
<path d="M191.4 61C189 62.2 179.1 71.3 166.8 83.8C148.3 102.5 146.2 105 145.1 109.3C143 118 144.8 121.9 156.9 134.3C162.7 140.2 168.8 145.9 170.4 147C177.5 151.3 185.8 150.4 192.6 144.6L196.7 141.1L205.4 149.9C213.8 158.3 214 158.7 212.2 160.3C210.9 161.5 208.6 162 204.8 162C198.3 162 188.9 164.7 182.8 168.3C167.6 177.2 157.3 200.9 164.2 210.9C168.7 217.5 176.1 219.5 184 216.4C191.7 213.3 196.5 217.4 193.6 224.5C188.3 237.1 196 248.8 209 247.7C227.9 246.1 244.3 229.5 247.1 209.1C247.7 205.1 247.9 201.2 247.6 200.5C247.4 199.8 248 198.4 249.1 197.4C251 195.7 251.7 196.3 275.8 220.3C301.1 245.5 304.4 248 311.5 248C317.3 248 321 245.7 330.2 236.4C339.2 227.1 341 224.2 341 218.4C341 211.3 338.5 208.1 313.2 182.8L288.5 158L294.8 151.7L301.1 145.3L308 145.2C324.1 144.9 339 134.9 346.1 119.6C351.6 107.9 351 98.8 344.5 93.1C339.9 89.1 334.9 88.2 328.9 90.3C322.8 92.5 320.7 92.4 318.5 90C316.7 88 316.7 87.3 319.1 79.5C320.7 74 319.6 68.7 315.9 64.5C311.7 59.8 306.7 58.4 299.3 59.9C279.1 63.9 264 82.9 264 104.4C264 108 263.4 109.1 257.8 114.7L251.5 121L242.8 112.3L234.1 103.6L238.6 98.8C246.3 90.5 247.8 84 243.8 76C242.5 73.5 240 70.5 238.2 69.4C234.8 67.1 203.8 59 198.5 59C196.9 59 193.7 59.9 191.4 61ZM212.8 80.4C220.2 82.3 226.3 84 226.5 84.2C226.8 84.4 216.4 95.1 203.5 108L180 131.5L171.3 122.7L162.5 114L181 95.5C191.2 85.3 199.5 77 199.5 77C199.5 77 205.5 78.6 212.8 80.4ZM299.1 84.1C298.4 94.5 303.5 103.7 312.5 108C316.2 109.8 318.4 110.1 324 109.8L330.8 109.4L329.4 112.3C326.9 117 321.1 122.8 316.5 125C313 126.7 310.6 127.1 303.8 126.9C299.2 126.8 294.6 127.1 293.5 127.8C292.4 128.4 277.4 143 260.3 160.2L229 191.6V200.5C229 211.6 226.6 217.6 219.5 223.8C213.1 229.4 211.9 229.3 212.7 223.2C213.8 213.3 208.7 203.9 199.5 199.4C194.8 197.2 193 196.8 187.5 197.2C183.9 197.4 181 197.3 181 196.9C181 195.9 186.6 188.7 189.6 185.8C194.5 181.2 199.1 179.9 209.1 180.2L218 180.5L250.7 147.8L283.3 115.1L282.7 109.1C281.5 97.6 285.2 88.4 293.5 82.1C295.7 80.4 298 79 298.5 79C299.1 79 299.4 81.1 299.1 84.1ZM230 125.5L238.5 134L232.7 139.7L227 145.5L218.3 136.8L209.5 128L215 122.5C218 119.5 220.7 117 221 117C221.3 117 225.4 120.8 230 125.5ZM316.8 223.7L311.2 229.3L287.6 206L263.9 182.6L269.7 176.8L275.5 171L299 194.5L322.5 218L316.8 223.7Z" fill="black"/>
<path d="M43.5 325.6C34.9 330.1 34 332.7 34 354.8C34 371.8 34.1 372.9 36.3 376.1C37.5 377.9 40.1 380.5 41.9 381.7C45.3 384 45.4 384 84.1 384C109.1 384 123.9 383.6 125.7 382.9C132 380.6 136.9 372.9 137 365.6C137 358 134.1 354.1 117.4 340.4C108.9 333.3 100.5 326.8 98.7 325.8C94.1 323.3 48.2 323.1 43.5 325.6ZM104.2 353.1C111.5 359.2 117.9 364.6 118.4 365.1C119 365.6 105.9 366 85.7 366H52V354V342H71.4H90.8L104.2 353.1Z" fill="black"/>
<path d="M155.5 325.4C151.8 327.1 147.5 331.6 146.1 335.3C144.3 340 144.8 347.8 147.1 351.9C149.2 355.5 176.3 379 182.3 382.2C185.2 383.9 190.7 384 255.8 384C318.9 384 326.4 383.8 329.3 382.4C332.7 380.6 352.4 364.6 359.8 357.6C365.5 352.2 367 349.2 367 343C367 334.6 362.6 327.7 355.7 325.1C353.8 324.3 322 324 255.7 324C176.7 324.1 157.9 324.3 155.5 325.4ZM349 342.7C348.9 343.2 342.7 348.6 335.2 354.7L321.5 366H256H190.5L176.8 354.5C169.2 348.1 163 342.7 163 342.5C163 342.2 204.9 342 256 342C307.2 342 349 342.3 349 342.7Z" fill="black"/>
<path d="M413.3 325.8C411.5 326.7 403.1 333.3 394.6 340.4C378.1 354 375 358 375 365.3C375 369.8 377.3 375.6 380.3 378.8C385.1 384 385.1 384 427.3 384C466.6 384 466.7 384 470.1 381.7C471.9 380.5 474.5 377.9 475.7 376.1C477.9 372.9 478 371.8 478 354.8C478 334.5 477.4 331.9 471.4 327.4L467.7 324.5L442.1 324.3C419.3 324.1 416.1 324.2 413.3 325.8ZM460 354V366H426.3C406.6 366 393 365.6 393.6 365.1C394.1 364.6 400.6 359.2 408 353.1L421.5 342H440.7H460V354Z" fill="black"/>
<path d="M45.5 411.2C44 412.6 42.7 415 42.3 417.2C41.8 420.4 42.2 421.3 44.8 424L47.8 427H81.2C116.2 426.9 116.4 426.9 118.8 422.3C120.8 418.6 120.2 415 117.1 411.9L114.2 409H81.1C48.3 409 48.1 409 45.5 411.2Z" fill="black"/>
<path d="M173.5 411.2C172 412.6 170.7 415 170.3 417.2C169.8 420.4 170.2 421.3 172.8 424L175.8 427H256H336.2L339.2 424C341.8 421.3 342.2 420.4 341.7 417.2C341.3 415 340 412.6 338.5 411.2L335.9 409H256H176.1L173.5 411.2Z" fill="black"/>
<path d="M394.9 411.9C391.8 415 391.2 418.6 393.2 422.3C395.6 426.9 395.8 426.9 430.8 427H464.2L467.2 424C469.8 421.3 470.2 420.4 469.7 417.2C469.3 415 468 412.6 466.5 411.2C463.9 409 463.7 409 430.9 409H397.8L394.9 411.9Z" fill="black"/>
</g>
<defs>
<clipPath id="clip0_2_57">
<rect width="512" height="512" fill="white"/>
</clipPath>
</defs>
</svg>