<svg xmlns="http://www.w3.org/2000/svg" fill="none" viewBox="8 32 496 455.86">
<path d="M246.7 37C245.2 49.7 233.7 61.2 220.9 62.7L216 63.3V72V80.7L221 81.3C233.9 82.8 245.2 94.2 246.7 107.1L247.3 112H256H264.7L265.3 107.1C266.8 94.2 278.1 82.8 291 81.3L296 80.7V72V63.3L291 62.7C278.1 61.2 266.8 49.8 265.3 36.9L264.7 32H256H247.3L246.7 37ZM261.7 66L267.7 72L261.8 77.8L256 83.7L250.2 77.8L244.3 72L249.9 66.1C253 62.9 255.5 60.2 255.6 60.1C255.6 60.1 258.4 62.7 261.7 66Z" fill="black"/>
<path d="M118.7 109C117.2 121.7 105.7 133.2 92.9 134.7L88 135.3V144V152.7L93 153.3C105.9 154.8 117.2 166.2 118.7 179.1L119.3 184H128H136.7L137.3 179.1C138.8 166.2 150.1 154.8 163 153.3L168 152.7V144V135.3L163 134.7C150.1 133.2 138.8 121.8 137.3 108.9L136.7 104H128H119.3L118.7 109ZM133.7 138L139.7 144L133.8 149.8L128 155.7L122.2 149.8L116.3 144L121.9 138.1C125 134.9 127.5 132.2 127.6 132.1C127.6 132.1 130.4 134.7 133.7 138Z" fill="black"/>
<path d="M374.7 109C373.2 121.7 361.7 133.2 348.9 134.7L344 135.3V144V152.7L349 153.3C361.9 154.8 373.2 166.2 374.7 179.1L375.3 184H384H392.7L393.3 179.1C394.8 166.2 406.1 154.8 419 153.3L424 152.7V144V135.3L419 134.7C406.1 133.2 394.8 121.8 393.3 108.9L392.7 104H384H375.3L374.7 109ZM389.7 138L395.7 144L389.8 149.8L384 155.7L378.2 149.8L372.3 144L377.9 138.1C381 134.9 383.5 132.2 383.6 132.1C383.6 132.1 386.4 134.7 389.7 138Z" fill="black"/>
<path d="M200.5 195C155.4 198.1 146.1 199.5 131.4 205.7C120 210.5 109.8 217.3 100 226.7C90.4 235.8 82.7 247 74.5 263.8C71.3 270.5 68.2 276 67.9 276C67.5 276 66.8 275 66.5 273.9C66 272.5 67 269.2 69.4 264C72.9 256.6 73 256 71.7 252.8C70.9 251 68 247.4 65.2 244.7L60.1 240H40.6C29.9 240 20.4 240.3 19.5 240.6C17 241.6 8 260.3 8 264.6C8 267.8 8.8 269.2 13.8 274.2L19.7 280H35.2H50.6L52.3 283.5C53.2 285.5 54 287.2 54 287.3C54 287.5 49.5 289.8 44 292.5L34 297.4L25 311L16 324.6V380.3C16 440.7 16 440.2 21.5 446C23.7 448.3 23.9 449.5 24.2 460.7C24.5 472.4 24.6 473 27.5 477.1C29.2 479.5 32.5 482.8 34.9 484.5L39.2 487.5L61.8 487.8C75.7 488 85.9 487.7 88 487.1C93 485.6 99.4 479.8 102 474.4C103.8 470.7 104.6 469.9 106.4 470.4C109.3 471.1 127.1 472.5 129.3 472.2C130.3 472.1 135.4 470.1 140.8 467.9C146.1 465.6 152 463.1 153.7 462.4L157 461L159.4 465.9C160.8 468.6 162.6 471 163.5 471.4C165.7 472.2 346.3 472.2 348.5 471.4C349.4 471 351.2 468.6 352.6 465.9L355 461L358.3 462.4C360 463.1 366 465.6 371.5 468L381.5 472.3L391.8 471.6C397.5 471.2 403.4 470.7 405 470.4C407.6 469.8 408 470.2 409.7 474.1C412.1 479.5 418.6 485.5 423.7 487C426.2 487.7 435.3 488 450.2 487.8L472.8 487.5L477.1 484.5C479.5 482.8 482.8 479.5 484.5 477.1C487.4 473 487.5 472.4 487.8 460.7C488.1 449.5 488.3 448.3 490.5 446C496 440.2 496 440.7 496 380.3V324.6L487 311L478 297.4L468 292.5C462.5 289.8 458 287.5 458 287.3C458 287.2 458.8 285.5 459.7 283.5L461.4 280H476.8H492.3L498.2 274.2C503.2 269.2 504 267.8 504 264.6C504 260.3 495 241.6 492.5 240.6C491.6 240.3 482 240 471.3 240H451.7L445.8 245.8C438.8 252.9 438.4 255.8 443.1 265.2C445.1 269.2 446 272 445.6 273.6C445.2 274.9 444.6 276 444.2 276C443.8 276 440.7 270.5 437.5 263.8C428.8 246 423 237.7 412.1 227C397.4 212.6 380.7 203.7 360.6 199.5C350.9 197.6 270.1 192 253.5 192.1C246.9 192.2 223.1 193.5 200.5 195ZM308.3 212C358 215.3 362.7 216.1 377.6 223.5C396.3 232.7 408.9 245.6 419.9 267C423.3 273.5 426 279 426 279.4C426 279.7 349.5 280 256 280C162.5 280 86 279.8 86 279.5C86 278.3 95.5 260.1 98.8 255C110.5 236.6 130.5 222.2 151.5 217C160 214.9 230.6 209.4 252.8 209.1C259 209.1 284 210.3 308.3 212ZM52.5 257.1C52.9 257.6 52.6 259.4 52 261.1L50.8 264H39.4C32.5 264 27.9 263.6 27.5 262.9C27.1 262.4 27.4 260.6 28 258.9L29.2 256H40.6C47.5 256 52.1 256.4 52.5 257.1ZM484 258.9C484.6 260.6 484.9 262.4 484.5 262.9C484.1 263.6 479.5 264 472.6 264H461.2L460 261.1C459.4 259.4 459.1 257.6 459.5 257.1C459.9 256.4 464.5 256 471.4 256H482.8L484 258.9ZM395.2 320.3L370.9 344.6L343.7 352.3L316.5 360.1L303.7 360H291L283 356L275 352H256H237L229 356L221 360H208.3L195.5 360.1L168.5 352.4L141.5 344.7L134.5 337.6C130.7 333.6 120.1 322.7 111.1 313.2L94.8 296H257.1H419.5L395.2 320.3ZM101 327.7C116.5 344.1 129.9 358 130.8 358.7C131.8 359.3 145.2 363.5 160.7 367.9L188.9 376H208H227L235 372L243 368H256H269L277 372L285 376H304.2H323.5L351.5 368C366.9 363.6 379.7 360 380 360C380.2 360 394.3 346.2 411.2 329.3L442 298.6L454 304.5L466 310.4L473 321L480 331.6V343.6V355.5L461.7 373.8L443.4 392.1L391.9 400L340.5 408H256.5H172.5L120.5 400L68.5 392L50.3 373.8L32 355.5V343.5V331.5L39 321L46 310.5L58.2 304.3C65 300.9 71 298.1 71.7 298.1C72.3 298 85.5 311.4 101 327.7ZM56.3 406.4C55.9 407 52.2 412 48.1 417.5C41 426.8 40.5 427.9 40 433.5L39.5 439.4L36 436.3L32.5 433.2L32.2 406.8L31.9 380.5L44.4 392.9C51.3 399.8 56.6 405.8 56.3 406.4ZM479.5 429.7C479.1 432.8 478 434.6 475.7 436.6L472.5 439.3L472 433.4C471.5 427.9 471 426.8 463.2 416.5L454.9 405.6L467.2 393.3L479.5 381L479.8 403.2C480 415.5 479.8 427.4 479.5 429.7ZM121.2 417.5L163.9 424H256.7L349.5 423.9L393.3 417.1L437.1 410.4L446.5 423L456 435.7V441.8C456 447.4 455.8 448 453.8 448.4C452.5 448.7 436.7 450.4 418.5 452.1L385.5 455.3L361.5 445C348.3 439.3 336 434.1 334.2 433.3L330.9 431.9L328.3 437.7C323.5 448.6 323.3 447.4 331.3 450.8C335.2 452.4 338.6 454.3 338.8 454.9C339.1 455.7 316.4 456 256 456C195.6 456 172.9 455.7 173.2 454.9C173.4 454.3 176.8 452.4 180.7 450.8C188.7 447.4 188.5 448.6 183.7 437.7L181.1 431.9L177.8 433.3C176 434.1 163.7 439.3 150.5 445L126.5 455.3L93.5 452.1C75.4 450.3 59.5 448.7 58.3 448.4C56.2 448 56 447.4 56 441.8V435.7L65.5 423C72.4 413.8 75.5 410.3 76.8 410.6C77.7 410.8 97.7 413.9 121.2 417.5ZM42 462C42 463.6 48.7 464.9 65.5 466.5C74.3 467.3 82.3 468 83.3 468C84.2 468 85 468.4 85 468.9C85 471 77.9 472 63.8 472C47.4 472 42.7 470.9 41.5 466.8C41.1 465.6 40.6 463.7 40.4 462.7C40.1 461.8 40.3 461 40.9 461C41.5 461 42 461.4 42 462ZM470.9 465.4C469.3 471.1 466.1 472 448.2 472C434.1 472 427 471 427 468.9C427 468.4 428 468 429.3 468C438.1 467.9 467.3 464.1 469.2 462.7C470.5 461.9 471.6 461.3 471.7 461.4C471.8 461.5 471.5 463.3 470.9 465.4Z" fill="black"/>
<path d="M50.4 317.3C47.8 319.6 47.7 319.8 46.4 340C45.4 356 45.4 361 46.3 362.9C48 366.4 81.5 386.9 85.6 387C88 387 92.2 384.6 103.1 376.9C111 371.4 118.1 366.1 118.8 365.2C120.4 363.1 120.4 356.8 118.8 354.8C118.1 353.9 109.4 347.9 99.5 341.4C54.7 312.1 55.8 312.7 50.4 317.3ZM85.8 353.2C91.4 357 96 360.2 96 360.4C96 360.9 86.2 368 85.5 368C85.3 368 80.1 365 74 361.3L63 354.6V347.5C63 343.5 63.3 340.1 63.6 339.7C64.2 339.1 69.3 342.2 85.8 353.2Z" fill="black"/>
<path d="M451.5 316.2C444.2 320.4 394.3 353.5 393.3 354.8C392.6 355.7 392 358 392 360C392 362 392.6 364.3 393.3 365.2C393.9 366.1 401 371.4 408.9 376.9C419.8 384.6 424 387 426.4 387C430.5 386.9 464 366.4 465.7 362.9C466.6 361 466.6 356 465.6 340C464.3 319.8 464.2 319.6 461.6 317.3C458.7 314.8 454.7 314.4 451.5 316.2ZM449 347.3V354.6L437.9 361.4L426.8 368.1L421.4 364.6C418.4 362.6 416 360.7 416 360.5C416 359.5 447.5 339.2 448.3 339.7C448.7 339.9 449 343.4 449 347.3Z" fill="black"/>
<path d="M248 383.5V392H256H264V383.5V375H256H248V383.5Z" fill="black"/>
</svg>