<svg xmlns="http://www.w3.org/2000/svg" fill="none" viewBox="0 0 512.16 512">
<g clip-path="url(#clip0_2_44)">
<path d="M15 2.09999C9.60003 4.49999 6.70003 7.09999 3.10003 12.5L0.50003 16.5L0.20003 253.9C0.10003 422.1 0.30003 492.4 1.10003 495.3C2.50003 500.6 11.3 509.4 16.6 510.9C19.3 511.7 73.3 512 197.1 512H373.6L378.9 509.4C385.3 506.2 390.5 499.6 392 492.5C392.8 489.1 393 472.6 392.8 442.3C392.5 398.2 392.4 397 390.4 395C389.3 393.9 386.7 392.7 384.7 392.3C381.6 391.8 380.7 392.2 378 394.8L375 397.8V442.5C375 489.5 374.8 491.7 370.5 493.4C369.6 493.7 290.9 494 195.6 494H22.3L20.2 491.7L18 489.4V255.9V22.3L20.3 20.2L22.6 18H195.7C290.9 18 369.6 18.3 370.5 18.6C375 20.4 375 19.9 375 107V189.2L378 192.2C380.7 194.8 381.6 195.2 384.7 194.7C386.7 194.3 389.3 193.1 390.4 192C392.5 190 392.5 189.4 392.5 104.2C392.5 21.4 392.4 18.4 390.6 14.6C388 9.39999 382.7 4.19999 377.6 1.89999C373.7 0.0999924 367 -7.62939e-06 196.5 -7.62939e-06C20.5 -7.62939e-06 19.5 0.0999924 15 2.09999Z" fill="black"/>
<path d="M79.3 53.4L76.5 55.8L76.2 74.8C75.8 95.9 76.7 100.2 81.5 102C85.5 103.5 308.5 103.4 311.3 101.8C314.6 100.1 315.9 97.9 315.9 94C315.9 90.1 314.6 87.9 311.3 86.2C309.7 85.3 281.4 85 201.6 85H94V77V69L202.6 68.8L311.2 68.5L313.6 65.7C316.9 61.9 316.8 57.1 313.4 53.6L310.7 51H196.4H82.1L79.3 53.4Z" fill="black"/>
<path d="M477.7 103.4C472 105.5 467.1 109.7 463.1 116.1C459.9 121.2 459.2 121.8 456.9 121.3C454.1 120.8 450.3 122.3 448.3 124.9C447.6 125.8 442.4 134.4 436.8 144.1L426.5 161.8L422 159.4C419.5 158.1 416 157 414.3 157C408.8 157 404.9 162.7 406.4 168.5C407 170.7 413.2 176.2 416.2 177.2C416.8 177.4 401.1 205.7 381.2 240L345.2 302.5L336.2 326.5C331.2 339.7 324.6 355.4 321.4 361.5C315.9 371.8 315.6 372.9 315.5 379.5C315.5 384.6 316 387.6 317.5 390.5L319.6 394.5L311.1 405C306.5 410.8 302.4 415.9 302 416.3C301.6 416.7 300.1 413.9 298.6 410C293.9 398.1 289.1 394 279.8 394C273.8 394 269.4 396.2 265.9 400.9C264.7 402.6 263.4 403.7 263 403.5C262.6 403.2 262 398.2 261.6 392.3C259.9 367.3 258.3 362.9 249.6 358.9C244.6 356.6 241.1 356.5 236.2 358.6C228.3 361.8 227.9 362.8 215.6 399.9C207.5 424.3 204.3 435.3 204.7 437.3C205.9 443.1 214.3 446.1 218.9 442.2C220.4 441 224.1 431.2 231.4 409.5C243.1 374.5 241.9 375.4 244 399.7C245.1 412.9 246 416.3 249.3 419.8C257.1 428.2 270.6 427.1 277.1 417.5C278.4 415.6 279.7 414 280 414C280.3 414 281.6 416.8 282.9 420.2C287.2 431.7 292.3 436 301.5 436C309.4 436 312.2 433.7 327 414.9L334.5 405.3H341C353.2 405.3 358.7 401.3 368.7 385.2C371.9 380.2 381.4 367.7 389.7 357.6L405 339.2L441.2 276.3C461 241.8 477.5 213.3 477.7 213C478.4 212.2 485.2 216.4 487.2 218.9C488.5 220.6 489 222.4 488.6 224.1C488.3 225.6 480 240.8 470.1 258C454.5 285 452.2 289.7 452.7 292.4C453.8 298.9 462 302.3 466.8 298.3C468.6 296.7 497.7 247.3 504 235C505.8 231.7 506.4 228.8 506.4 224C506.4 213.3 502 206.1 491.9 199.8L487 196.8L490.2 191.2C492 188 496.9 179.4 501.2 172C505.6 164.4 509 157.4 509 155.9C509 154.4 508.2 152.2 507.1 150.9C505.3 148.6 505.3 148.5 508.6 141.6C513.1 132.4 513.3 124 509.4 116.2C503.8 104.9 489.6 99.2 477.7 103.4ZM492.3 123.1C493.2 124.3 494 126.3 494 127.7C494 130.7 490.4 138 488.9 138C487.9 138 477.6 132.6 476 131.3C475.2 130.6 479.4 123.8 481.9 121.8C485 119.4 489.7 120 492.3 123.1ZM473.8 151C481 155.1 486.9 159 486.7 159.6C486.1 162.4 471.4 186.9 470.4 186.7C467.6 186.1 443 171.4 443.3 170.4C443.9 167.6 458.6 143.1 459.6 143.3C460.1 143.4 466.5 146.9 473.8 151ZM448.3 195.4L462 203.3L460.1 206.4C459.1 208.1 443.9 234.2 426.5 264.5C409.1 294.7 394.6 319.7 394.4 319.9C393.6 320.8 366.5 304.2 366.8 303C367.3 300.7 433.3 186.9 434 187.2C434.3 187.4 440.8 191.1 448.3 195.4ZM369.6 327.3C375.6 330.8 381.2 334.1 382.1 334.6C383.5 335.4 382.2 337.5 373.4 348C367.6 354.9 362.6 360.5 362.2 360.5C360.5 360.5 347 352.4 347 351.4C347 350.7 349.3 344.2 352 336.9C354.8 329.5 357.2 322.9 357.5 322.2C357.7 321.6 358.1 321 358.3 321C358.6 321 363.6 323.8 369.6 327.3ZM351 376C352.3 376.8 352.3 377.3 350.6 380.4C347.9 385.4 345.5 387.3 341.8 387.3C338.3 387.3 334 383.3 334 379.9C334 377.9 336.3 372.7 338.2 370.3C339.1 369.1 341 369.9 351 376Z" fill="black"/>
<path d="M104.9 121.9C100.5 126.3 101.4 133.5 106.7 135.9C110 137.4 283.3 137.5 286.2 135.9C289.3 134.2 291.2 128.8 289.9 125.1C287.7 118.7 291.8 119 195.5 119H107.8L104.9 121.9Z" fill="black"/>
<path d="M139.9 180.3C135.5 183.7 135.1 190.9 139.1 194.6C141.1 196.4 144.7 196.5 237.4 196.8C309.9 197 334.2 196.7 336.4 195.8C339.7 194.5 342.4 189 341.4 185.7C341.1 184.5 339.8 182.5 338.7 181.2L336.7 179H239.1C163.9 179.1 141.1 179.3 139.9 180.3Z" fill="black"/>
<path d="M62.3 232.4C58.4 235.8 58.4 242.2 62.3 245.6L65.1 248H153.5H241.9L244.7 245.6C248.6 242.2 248.6 235.8 244.7 232.4L241.9 230H153.5H65.1L62.3 232.4Z" fill="black"/>
<path d="M266.9 232.9C264.9 234.9 264 236.8 264 239C264 241.2 264.9 243.1 266.9 245.1L269.8 248H302.9H335.9L338.7 245.6C340.9 243.7 341.5 242.4 341.5 239C341.5 235.6 340.9 234.3 338.7 232.4L335.9 230H302.9H269.8L266.9 232.9Z" fill="black"/>
<path d="M62.3001 275.2C59.3001 278.5 58.7001 281.4 60.4001 285.4C62.7001 291 64.2 291.1 113.2 290.8L157 290.5L159.6 287.9C163 284.4 163.2 278.9 159.9 275.4L157.7 273H111H64.3001L62.3001 275.2Z" fill="black"/>
<path d="M181.5 275.5C178 278.9 178.1 284.8 181.6 288.1L184.2 290.5H217.5H250.8L253.4 288.1C257.1 284.6 257.1 278 253.4 275.1C250.8 273.1 249.6 273 217.3 273H183.9L181.5 275.5Z" fill="black"/>
<path d="M96.1 333.2C60.5 338.2 34 368.9 34 404.9C34 417.8 36.1 426.7 41.4 437.5C49.2 453.1 58.9 462.8 74.5 470.6C85.3 475.9 94.2 478 107.1 478C144.3 478.1 174.3 451.2 179 413.7C179.9 406.6 179.8 404.4 178.6 401.6C176.2 395.7 168.3 394.7 163.8 399.6C162.8 400.8 161.8 404.8 161.2 410.1C158.7 430.3 147.7 446.2 130.5 454.4C120.7 459.1 114.4 460.4 103.6 459.7C92.2 459.1 82.9 455.8 74.1 449.1C60.8 439.2 53.2 424.9 52.3 408.4C51.3 392.1 56.5 378.4 67.9 367.1C86.6 348.4 113.3 345.4 136.4 359.4C143.8 363.8 147.2 364 151.1 360.1C157.5 353.7 153.7 347.5 139 340.1C126.7 334 109.8 331.2 96.1 333.2Z" fill="black"/>
<path d="M120.5 396L104.5 412L94.4 401.9C85.2 392.7 83.9 391.8 80.6 391.8C73.7 391.8 69.6 398.2 72.5 404.4C74.7 409 92.9 426.6 97.3 428.5C101.9 430.4 107.1 430.4 111.6 428.5C115.6 426.8 145.3 398.2 147.6 393.8C151 387.2 147.2 380 140.2 380C136.9 380 135.3 381.4 120.5 396Z" fill="black"/>
</g>
<defs>
<clipPath id="clip0_2_44">
<rect width="512" height="512" fill="white"/>
</clipPath>
</defs>
</svg>