<svg xmlns="http://www.w3.org/2000/svg" fill="none" viewBox="41.95 0 427.55 512">
<path d="M95.9 2.59999C93.6 4.99999 93.5 5.89999 93.2 19.6L92.8 34H70.2C45.8 34.1 45 34.2 43 39.4C41.6 43.2 41.6 502.8 43 506.6C45.2 512.3 32.8 511.9 230.6 512H413.7L416.1 509.4C418.5 506.9 418.5 506.6 418.8 483.9L419.1 461H441.9H464.7L467.1 458.4L469.5 455.8V289.9V124L407.5 62L345.5 -7.62939e-06H221.9H98.3L95.9 2.59999ZM332 73C332 131.7 332.1 133.4 336.8 135.9C338.2 136.7 356.8 137 395.4 137H452V290V443H281.5H111V230.5V18H221.5H332V73ZM394.5 75L438.5 119H394.2H350V75C350 50.8 350.1 31 350.3 31C350.4 31 370.3 50.8 394.5 75ZM93.2 254.1L93.5 456.2L96.3 458.6L99.1 461H250.1H401V477.5V494H230.5H60V273V52H76.5H93L93.2 254.1Z" fill="black"/>
<path d="M151 76.7C150.2 77 148.5 78.2 147.3 79.3C145 81.3 145 81.5 145 111V140.7L147.6 143.1C150.2 145.5 150.2 145.5 176.5 145.8C193.7 146 204.3 145.7 207 145C213.7 143.2 214 141.6 214 110.5C214 81 213.7 79.1 207.9 77.1C204.6 76 154 75.6 151 76.7ZM196 111V128H179.5H163V111V94H179.5H196V111Z" fill="black"/>
<path d="M147.5 164.5C144 167.9 144.1 173.8 147.6 177.1C149.9 179.2 151.2 179.5 159.8 179.9C172.3 180.3 176.7 179 178.6 174.4C180.3 170.4 179.7 167.5 176.7 164.2C174.8 162.1 173.8 162 162.3 162C150.5 162 149.8 162.1 147.5 164.5Z" fill="black"/>
<path d="M198.5 164.5C195.2 167.7 195.2 172.9 198.4 176.7L200.8 179.5L304.7 179.8C378.8 180 409.6 179.8 412.3 179C418.8 177.1 420.5 169.6 415.7 164.2L413.7 162H307.3H200.9L198.5 164.5Z" fill="black"/>
<path d="M147.5 215.5C145.7 217.2 145 219 145 221.7C145.1 229.1 148.5 231 162 231C173.5 231 177.2 229.7 178.8 225.2C180.2 221.2 179.2 217.3 176.2 215C174.1 213.3 172.2 213 161.8 213C150.5 213 149.8 213.1 147.5 215.5Z" fill="black"/>
<path d="M198.6 215.6C195 219.2 195 224.7 198.6 228.1L201.2 230.5L305.8 230.8C384.9 231 411.2 230.7 413.4 229.8C419 227.5 420.1 218.8 415.2 215C412.8 213 410.8 213 307 213H201.3L198.6 215.6Z" fill="black"/>
<path d="M149.5 265.2C144.2 268.1 143.2 275.4 147.6 279.5C150.1 281.9 151 282 162 282C175.1 282 178.2 280.8 179.3 275.3C180 271.4 177.6 266.2 174.5 265C171 263.7 152 263.8 149.5 265.2Z" fill="black"/>
<path d="M200.5 265.2C195.2 268.2 194.3 275.1 198.6 279.4L201.3 282H306.7C380.3 282 412.7 281.7 414.2 280.9C417.3 279.2 419.2 273.8 417.9 270.1C415.6 263.7 421.5 264 306.8 264C230.2 264.1 202 264.4 200.5 265.2Z" fill="black"/>
<path d="M150.1 316.1C146.6 317.5 145.1 320 145 324.3C145 327 145.7 328.8 147.5 330.5C149.8 332.9 150.5 333 162.3 333C173.8 333 174.8 332.9 176.7 330.7C179.6 327.5 180.2 325.1 178.9 321.3C177.3 316.4 173.3 315 161.8 315.1C156.7 315.1 151.4 315.6 150.1 316.1Z" fill="black"/>
<path d="M202 315.7C195.8 318 193.9 326 198.5 330.5L200.9 333H306.8C410.8 333 412.8 333 415.2 331C420.4 327 419 318.2 413 316.1C410.6 315.3 381.1 315 306.6 315.1C249.9 315.1 202.8 315.4 202 315.7Z" fill="black"/>
<path d="M151.5 366.7C145.1 368.4 142.6 377.4 147.3 381.8C149.4 383.8 150.7 384 162.1 384C174.2 384 174.7 383.9 177 381.5C180.4 377.9 180.2 372.8 176.7 369.2C174.2 366.7 173.4 366.5 163.8 366.3C158.1 366.2 152.6 366.4 151.5 366.7Z" fill="black"/>
<path d="M202.3 366.7C196.4 367.9 194 377.1 198.5 381.5L200.9 384H307.3H413.7L415.9 381.6C419.2 378.1 419 372.6 415.6 369.1L413 366.5L308.7 366.4C251.4 366.3 203.5 366.5 202.3 366.7Z" fill="black"/>
</svg>