<svg xmlns="http://www.w3.org/2000/svg" fill="none" viewBox="0 35.65 512 440.85">
<path d="M350.4 39.9C327.4 48.4 312.6 57.4 298.7 71.5C288.9 81.3 286.5 84.9 254.4 134.8C237.8 160.8 225 179.8 224.3 179.6C223.7 179.3 199.4 158.1 170.5 132.3C141.5 106.6 114.3 82.9 110.1 79.8C101.7 73.4 84.1 64.3 74 61C67.8 59 65.8 58.9 35.4 59.2C10 59.4 3 59.8 1.7 60.9C0.1 62.1 0 72.7 0 193.6C0 311.6 0.2 325 1.6 326.4C2.9 327.8 7.5 328 36.6 328C56.9 328 70.9 327.6 72 327C73 326.5 74.1 324.7 74.5 323.2C75.5 318.4 89.4 306.2 101.3 299.6C118.7 289.9 141.4 285.4 160.4 287.9C197.9 292.9 228.8 317.8 241.4 353C243.2 358 245.2 362.6 245.8 363.2C246.7 364.1 247 371.2 247 388.5C247 410.7 247.2 412.8 248.8 414.3C250.5 415.9 257.7 416 331.8 416H413V419.9C413 423.7 412.7 424.1 404.8 429.8C400.2 433 392.7 438 388 440.9C374.2 449.2 371 452.8 371 459.9C371 465.7 373.6 470 379.1 473.7L383.4 476.5H446C497.7 476.5 509 476.3 510.3 475.1C511.9 473.9 512 464.7 512 362.1C512 243.3 512 242.9 507 211C502.9 185.3 495.8 162.8 489.7 156.1C485.9 151.9 476.4 146.4 469.1 144L462 141.7L466.4 137C475.5 127.3 478 118.6 478 95.9C478 77.9 477.1 71.9 473 63.3C460.4 36.3 423.5 30 402.1 51.2C395.6 57.7 390.1 68.3 389.3 76.4L388.7 82H377C363.9 82 362 82.9 362 88.8C362 94.3 363.8 95 377.1 95H389V104.9C389 116.4 391 124.3 396 132C400 138.3 406.8 144.3 413.1 147.2C415.7 148.5 417.9 149.8 418 150.1C418 150.6 359.1 208.2 353 213.7L350.5 215.9L321.5 213.7L292.5 211.5L276.8 180.4L261.2 149.4L278 123.2C298.9 90.7 300 89.2 310.2 79.4C323.9 66.3 336.2 59 356.6 52C363 49.8 368.9 47.5 369.7 46.9C371.4 45.5 371.4 39.9 369.8 37.7C367.3 34.5 363.8 34.9 350.4 39.9ZM446.7 54.8C449 56 452.5 58.4 454.4 60.1C458.7 63.8 464 74.1 464 78.7V82H432.9H401.8L402.5 77.7C404.2 68 413.2 56.9 422.3 53.6C428.4 51.3 441.2 52 446.7 54.8ZM61 194V315H37H13V194V73H37H61V194ZM85.5 80.5C90.4 83 97.9 87.6 102.1 90.7C106.3 93.9 137.8 121.4 172.1 151.9C233.1 206.1 234.4 207.3 230 206.7C227.5 206.4 217.9 205.6 208.5 204.9L191.5 203.8L146 158.6C99.5 112.4 93.7 107.3 80.6 101.5L75 99V87.5C75 81.2 75.3 76 75.7 76C76.2 76 80.5 78 85.5 80.5ZM464.7 104.2C463.9 116.1 461.9 121.8 456.4 127.9C449.8 135.2 442.5 138.5 433 138.4C424 138.3 417.7 135.7 411.4 129.5C404.8 122.8 402.6 117.2 402.2 105.2L401.8 95H433.5H465.3L464.7 104.2ZM88.5 121.8C91.3 123.8 103.5 135.3 115.7 147.4L138 169.4L135.2 170.5C131.3 172.2 126.2 176.8 124.4 180.1C122.3 184.3 121.1 191.8 122 195.1C122.8 197.9 122.8 198 119.2 198C117.2 198 107.6 197.3 98 196.5C88.4 195.7 79.3 195 77.8 195H75V154.5V114L79.3 116.1C81.6 117.3 85.8 119.9 88.5 121.8ZM453.4 154C454.8 154.5 456 156 456.3 157.7C457 161.3 455.4 168.8 453.2 172.2C452.3 173.6 438.5 188.3 422.6 204.8L393.7 234.9L387.8 230.9C381.7 226.7 370.4 221 368.3 221C367.6 221 367 220.6 367 220.1C367 219.6 382.6 204 401.7 185.5L436.5 151.8L443.8 152.4C447.8 152.8 452.2 153.5 453.4 154ZM475.4 161.9C477.8 163.6 480.4 165.9 481.2 167.2C487 176.1 494.7 210.9 497.6 241.7L498.2 248.9L492.1 252.9C485 257.4 473.1 262 457.5 266C446 269 427 273 424.1 273C423.1 273 421.1 270.3 418.8 265.7C416.7 261.8 412.5 255.2 409.5 251.2L403.9 243.9L421.7 225.4C467.5 177.9 468 177.3 469.5 164.7C469.9 161.6 470.4 159 470.7 159C470.9 159 473.1 160.3 475.4 161.9ZM264.5 186C270.8 198.6 276 209.2 276 209.6C276 209.9 271.6 209.8 266.3 209.4L256.5 208.7L245.9 199.2L235.2 189.8L243.8 176.4C248.5 169 252.5 163 252.7 163C252.9 163 258.2 173.3 264.5 186ZM159.5 192.1L169.5 202.2L164.5 201.6C161.8 201.3 154.4 200.8 148.3 200.4L137 199.7L136 196.1C134.4 190.2 134.8 188 138.1 184.9C140.5 182.7 142.2 182 145.4 182C149.3 182 150 182.5 159.5 192.1ZM126.5 212C148.5 213.6 168.9 215.2 171.8 215.6L177.1 216.2L176.4 223.3C175.5 233.7 170.9 250.8 165.9 263.3L161.5 274L146.5 274.4C130.2 274.8 121.3 276.5 107.3 282C98.9 285.2 87.4 291.7 79.8 297.6L75 301.2V254.5V207.8L80.8 208.4C83.9 208.7 104.5 210.4 126.5 212ZM269.8 223C353.8 229.4 356.7 229.8 370.6 236.5C374.6 238.4 381.4 242.8 385.7 246.3L393.5 252.5L358.5 252.7C324.2 253 323.5 253 321.8 255.1C320.2 257 320 259.6 320 276C320 292.7 320.2 295 321.8 297C323.4 299 329.4 300.5 369.1 308.6C394.1 313.7 414.8 318 415.3 318C415.7 318 416 325.6 416 335V352H335.5C288.5 352 255 351.6 255 351.1C255 350.6 253.4 346.3 251.4 341.5C244 323.9 229.3 305.5 213.8 294.7C205.3 288.6 191.5 281.8 182.3 279C176.1 277.2 175.2 276.6 175.9 275.2C177.9 271.5 184.3 251.9 186.5 242.8C187.8 237.4 189.2 229.5 189.6 225C189.9 220.6 190.7 217 191.2 217C191.7 217 227.1 219.7 269.8 223ZM499 343V421H484.2H469.4L469.8 401C470.4 372.9 467.4 339.6 460.4 296.7C459 288 458 280.7 458.2 280.4C458.5 280.2 463.1 278.7 468.6 277.1C478.5 274.1 490 269.7 495.5 266.7C497.2 265.8 498.6 265.1 498.8 265C498.9 265 499 300.1 499 343ZM406.7 271.7C408.4 274.9 410.7 280.4 411.8 284C414 290.8 416.3 303.1 415.5 303.8C415.2 304.1 396.6 300.6 374 296L333 287.6V276.8V266H368.4H403.7L406.7 271.7ZM447.4 299.6C451 322.2 454.6 351.3 456.1 370.1C457.3 385.8 456.9 416 455.5 419.2C454.9 420.8 453.1 421 440.4 421H426V418.1C426 416.5 426.7 414.7 427.6 414C428.9 412.8 429.1 406 428.7 352.6C428.5 319.5 427.9 291.1 427.5 289.4L426.8 286.2L434.7 284.7C439 283.9 443 283.2 443.6 283.1C444.2 283 445.8 289.9 447.4 299.6ZM416 384V403H338H260V384V365H338H416V384ZM446.9 436.6C445.6 438.1 441.2 441.5 437.2 444.2C429 449.8 426 453.8 426 459.2V463H406.9C395.2 463 387.1 462.6 385.9 461.9C383.9 460.9 383.9 460.8 385.7 458.8C386.7 457.7 389.5 455.6 392 454.2C398.6 450.4 414 440.1 418 436.9C421.4 434 421.5 434 435.4 434H449.3L446.9 436.6ZM499 448.5V463L469.3 462.8C434.5 462.5 434.6 462.5 446.3 454.3C454.5 448.6 460.2 442.7 462.7 437.5L464.4 434H481.7H499V448.5Z" fill="black"/>
<path d="M136.8 298.1C106.7 302.5 83.2 319.6 69.5 346.9C58.2 369.6 58 399.2 69 422.7C82.1 450.7 107.6 469.1 138.8 473.1C162.1 476.1 187.9 468.2 206.3 452.5C239.3 424.3 246.6 375.7 223.4 338.3C217.2 328.2 204.6 315.8 194.4 309.8C177.4 299.7 155.8 295.3 136.8 298.1ZM151.9 311C152.3 311 152.6 314.2 152.6 318.2C152.5 326.3 151.2 325.3 165.2 328.5C174.3 330.6 175.1 330.3 177.5 322.9C179.3 317.5 179.7 317.3 184 319.5L187 321L183.4 326.4C179.2 332.8 179.4 334.6 184.9 338.4C187 339.9 189.9 342.4 191.5 344C195.3 348 198.4 347.8 203.1 343.5C205.3 341.6 207.4 340 207.8 340C208.7 340 212.4 346 211.8 346.4C211.7 346.6 209.7 347.7 207.4 348.8C202.3 351.4 200.6 353.4 201.3 356.2C202.8 362.3 207.5 373.2 209 374C210.1 374.6 212.6 374.4 216.1 373.5C219.1 372.7 221.8 372 222.1 372C222.5 372 223 373.8 223.2 376L223.6 380H217.8C209.9 380 208.5 381.5 207.7 391.1C207.4 395.2 206.9 399.3 206.5 400.2C205.6 402.6 209.1 405.7 213.7 406.4C219.6 407.4 220.2 408.1 218.9 411.8C217.6 415.6 217.2 415.6 212 413C205.7 409.8 203.6 410.3 199.9 415.7C198.1 418.4 195.6 421.8 194.3 423.3C191.1 427.3 191.4 428.8 196.5 434L201 438.6L198.1 441.4L195.3 444.1L191.6 439.1C189.1 435.6 187.3 434 185.8 434C182.7 434 168 441.8 167.2 443.8C166.9 444.7 167.6 448 168.7 451.2L170.8 456.9L167.3 457.9C165.3 458.5 163.4 458.7 163 458.5C162.6 458.3 162 455.6 161.7 452.6C161.4 449.5 160.9 446.6 160.5 446C159.6 444.5 138.3 444.7 137.4 446.2C136.9 446.9 136.3 449.9 135.9 452.8C135.5 455.8 135 458.4 134.8 458.6C134.6 458.8 132.7 458.5 130.7 457.9L127.1 456.9L129.2 451.1C130.4 447.9 131.1 444.6 130.8 443.8C130 441.9 114.5 434 111.5 434C109.8 434 108.3 435.4 106 439L102.8 444L99.9 441.9C98.3 440.8 97 439.5 97 439.1C97 438.7 98.6 436.8 100.6 434.9C106.8 429 106.8 428.8 100.5 419.4C94 409.8 93 409.4 85 413.5L80.1 416L79 412.4C77.6 408.2 78.2 407.5 84.1 406.5C91.2 405.3 91.5 404.6 90 393.4C89.4 388 88.3 382.9 87.8 382.2C87.2 381.5 84.3 381 80.4 381C73.5 381 73.5 380.9 74.6 375.3L75.2 372.3L81.2 373.8C85 374.8 87.8 375 88.7 374.4C90.5 373.3 97.1 356 96.5 354C96.2 353.2 93.6 351.2 90.6 349.6C84.9 346.5 84.8 346.2 88.2 341.6C89.6 339.9 89.9 340 94.4 343.9C97 346.2 99.7 348 100.5 348C102.8 348 117 334.8 117 332.7C117 331.6 115.4 328.6 113.5 326L110.1 321.3L113.8 319.2L117.6 317.1L119.9 323.1C121.2 326.4 122.9 329.4 123.7 329.7C126.1 330.6 144 325.9 145 324C145.5 323.1 145.5 319.8 145.1 316.7C144.4 311.5 144.5 311.1 146.4 310.7C147.6 310.5 149.1 310.4 149.8 310.6C150.6 310.8 151.5 311 151.9 311ZM135.2 314.9C135.6 317.6 135.3 317.9 132.2 318.5C128.3 319.2 128.1 319.2 127.8 316C127.6 314.2 128.1 313.5 130 312.9C134.2 311.7 134.8 311.9 135.2 314.9ZM167.4 313C172.1 314.8 170.1 319.6 165.1 318.5C162.5 317.9 162 317.4 162 314.9C162 311.8 163.1 311.3 167.4 313ZM104.9 331.5C104.9 332 103.9 333.3 102.6 334.2C100.3 335.9 100.1 335.9 98 334.2L95.8 332.4L99 329.7C102 327.1 102.3 327 103.6 328.7C104.3 329.7 104.9 330.9 104.9 331.5ZM198.5 329.5L201.5 332L199.4 334.1L197.3 336.2L194.5 333.8C192 331.6 191.9 331.2 193.1 329.2C194.8 326.5 194.8 326.5 198.5 329.5ZM85 358.1C85 360.7 82.8 364 81.1 364C78.3 364 77.7 362.5 79 358.5C80 355.4 80.3 355.2 82.6 356.2C83.9 356.8 85 357.7 85 358.1ZM218.6 358.6C220.3 362.7 220.4 362.6 216.9 363.5C214.9 364 214.2 363.7 213.7 362.3C213.5 361.3 212.9 359.8 212.6 358.9C212 357.6 214.2 355.7 216.8 355.1C217 355 217.8 356.6 218.6 358.6ZM80 391.7C80 392.7 80.3 394.5 80.6 395.6C81.1 397.3 80.6 397.8 78.3 398.3C76.8 398.6 75.4 398.8 75.4 398.7C75.3 398.6 74.9 396.6 74.5 394.2C73.8 390 73.8 390 76.9 390C79.2 390 80 390.5 80 391.7ZM223.6 391.6C223.3 392.5 223 394.4 223 396C223 398.6 222.8 398.8 220.3 398.1C218.4 397.6 217.4 396.6 217.2 395.1C216.6 391.4 217.7 390 221.1 390C223.5 390 224.1 390.3 223.6 391.6ZM92.3 424.9C93.9 427.6 93.9 427.8 92.1 429.4C89.7 431.6 89.5 431.5 87.1 427.8L85.1 424.5L87.3 423.3C90.3 421.6 90.3 421.6 92.3 424.9ZM210.4 423.1L212.9 424.3L210.7 427.6C208.1 431.5 207.9 431.6 205.6 429.1C203.9 427.3 203.9 427 205.5 424.6C207.5 421.6 207.2 421.7 210.4 423.1ZM117 446.5C119.1 447.6 119.7 448.5 119.3 450C118.5 453 117.4 453.3 114 451.5C110.6 449.7 110.6 449.7 112.2 447C113.7 444.6 113.4 444.6 117 446.5ZM186 448.1C186.9 449.7 186.6 450.2 183.5 451.7C179.7 453.5 179.6 453.5 178.6 450.3C178 448.6 178.5 447.8 180.7 446.7C183.8 445 184.5 445.2 186 448.1ZM152.8 457.2C153.1 459.9 152.9 460 149.1 460C145.2 460 145 459.9 145 456.9C145 454 145.2 453.9 148.8 454.2C152 454.5 152.5 454.9 152.8 457.2Z" fill="black"/>
<path d="M139 349.5C128.7 352.4 120.6 359.2 115.3 369.3C112.8 374 112.5 375.5 112.5 385C112.5 394.9 112.7 395.9 115.8 402.2C130.3 431.7 174.3 428.3 184.1 396.9C191.4 373.5 175.8 350.3 151.4 348.5C146.8 348.2 142.7 348.5 139 349.5ZM159.8 364.4C170.7 370 175.8 385.1 170.3 395.6C167.5 400.8 161.3 406.4 156.5 408C150.5 410 141.9 408.9 136.4 405.4C117.8 393.9 123.4 365.8 145 362C149.2 361.3 155.9 362.4 159.8 364.4Z" fill="black"/>
<path d="M141.3 375.2C135.6 378 135.7 393.2 141.6 395.8C142.9 396.5 146.6 397 149.6 397C154.1 397 155.5 396.6 157.5 394.5C159.7 392.4 160 391.2 160 385.1C160 378.8 159.8 378 157.4 376.1C154.4 373.8 145.3 373.3 141.3 375.2ZM151 385.5C151 386.3 150.1 387 149 387C147.9 387 147 386.3 147 385.5C147 384.7 147.9 384 149 384C150.1 384 151 384.7 151 385.5Z" fill="black"/>
</svg>