<svg xmlns="http://www.w3.org/2000/svg" fill="none" viewBox="2.09 2.16 647.76 647.72">
<path d="M299 2.70004C228.5 9.70004 169.3 34.2 117 78.1C56.5 128.9 17.2 199.7 4.89999 280.5C2.29999 297.4 1.19999 336.6 2.89999 354.6C14.3 478.2 92.9 583.1 208 628.3C243.5 642.2 276.6 648.7 316.6 649.7C342.5 650.3 357.5 649.4 378.9 645.9C479.9 629.2 567.9 565.1 614.3 474.3C634.2 435.4 645.6 395.7 649.2 353.5C650.6 336.8 649.6 297 647.5 282.5C633.5 186.4 581.6 105.1 501.1 53C458.6 25.6 406.7 7.70004 355.5 3.00004C345.4 2.10004 307.2 1.80004 299 2.70004ZM502.3 144.4C508.7 147.4 514.1 152.7 517.5 159.4C519.5 163.4 520 165.8 520 172.2C520 176.5 519.6 180.8 519.1 181.8C518.6 182.7 517.6 184.8 516.9 186.5C514.4 191.9 506.8 198.5 500.4 201C485 206.8 467 198.3 461 182.4C457.2 172.2 459 162.3 466.3 152.8C471.7 145.7 479.2 142.3 489.7 142.1C495.4 142 498.1 142.5 502.3 144.4ZM426.1 204.7C447.9 210.9 462.4 225.2 467.5 245.5C472.2 264.3 472.2 307.1 467.4 326.7C462 349.1 447.9 362.4 424.8 367.2C421.6 367.9 419 368.8 419 369.3C419 370.3 420.9 372.9 437.9 396C444.2 404.5 453.2 416.7 457.9 423C462.5 429.3 469 438 472.2 442.2L478 450H443.7H409.4L382.3 409.7L355.3 369.5L294.6 369.2L234 369V409.5V450H203.5H173V326V201.9L295.8 202.2C418.2 202.5 418.5 202.5 426.1 204.7Z" fill="currentColor"/>
<path d="M235.2 255.8C234.3 256.5 234 263.1 234.2 285.6L234.5 314.5L313 314.8C361.9 314.9 393.6 314.6 397 314C401.1 313.3 403.2 312.2 405.2 310.1C409.3 305.5 410.2 300.5 409.8 283.1C409.5 269.7 409.2 267 407.5 264.1C404.6 259.1 401.1 257 394.4 256.1C386.8 255 236.9 254.8 235.2 255.8Z" fill="currentColor"/>
</svg>