<svg xmlns="http://www.w3.org/2000/svg" fill="none" viewBox="0 0 512 512">
<g clip-path="url(#clip0_2_25)">
<path d="M124.3 1.40004C113.9 4.70004 104.2 13.4 99 23.9C97.2 27.4 89.5 43.4 81.8 59.4C74.2 75.4 67.7 88.6 67.5 88.9C67.2 89.1 64.8 87.3 62.2 84.8C53.2 76.3 46 74 28.7 74C15.8 74 11.6 75.1 6.7 79.8C1.3 84.9 0 88.9 0 100.5C0 112.6 1.5 116.8 7.5 121.8C12.5 125.9 17.1 127 29.3 127H39.8L35.9 134.7C28.8 148.8 28.5 151.1 28.5 190C28.5 219.6 28.8 225.6 30.3 232.1C32.4 241.1 37.4 252 43.5 260.6L47.9 266.9L48.2 289.3L48.5 311.7L51.5 316.5C55.4 322.8 61.6 327.5 68.6 329.6C73.1 330.9 78 331.1 94.3 330.8C113.9 330.5 114.7 330.4 119.5 327.8C130.7 321.9 135.1 313.9 135.8 298.2L136.3 288H196.9H257.6L257.2 298.4C254.8 362.9 305.7 416 370 416C380.1 416 394.4 414 401.7 411.5L405.9 410.1L434.1 455.2C449.6 480 463.7 501.9 465.4 503.8C474.5 514.2 493.7 514.8 503.8 505.1C505.9 503.1 508.4 499.6 509.5 497.5C511.8 492.6 512.6 482.9 511.1 477.3C510.5 475.1 497.2 452.7 481.5 427.6L453 382L459.8 373.6C486.7 340.1 492.5 294.1 474.9 255.1C468.2 240.2 451.6 219.8 439.5 211.5L434.2 207.8L433.8 180.1C433.4 152.9 433.4 152.4 430.6 144.5C429.1 140.1 426.6 134.4 425 131.8L422.1 127.2L434.8 126.8C446.6 126.5 447.9 126.3 452.2 123.7C455.3 121.9 457.9 119.3 459.7 116.2C462.3 111.8 462.5 110.7 462.5 100.5C462.5 88 460.8 83.2 454.8 78.7C449.2 74.5 444.9 73.7 430.6 74.2C418.1 74.5 417 74.7 410.7 77.8C407.1 79.6 402.1 83 399.7 85.4L395.2 89.7L377.9 54.2C358.1 13.8 355.4 9.80004 343.2 3.80004L336.5 0.500041L232.5 0.300041C148.5 0.200041 127.7 0.400041 124.3 1.40004ZM335.1 18.6C342.6 22.1 346.8 27.2 353.3 40.9C357.7 50.2 385.6 107.2 388.8 113.2C389 113.7 318.2 114 231.6 114H74L78.1 105.7C80.4 101.2 89.9 81.8 99.2 62.5C108.5 43.3 117.3 26.3 118.8 24.7C122.3 21 128.2 18 133.9 17C136.4 16.6 181.7 16.3 234.5 16.4C330.1 16.5 330.5 16.5 335.1 18.6ZM44.7 93.4C48.2 95.1 51 97.4 53.4 100.7C60.3 110.1 59 111 37.9 111C17.2 111 16.5 110.7 16.5 100.7C16.5 91.5 17.1 91 29.4 91C38 91 40.3 91.4 44.7 93.4ZM444.2 92.7C445.6 93.9 446 95.8 446 100.3C446 110 446 110 425 110C409.4 110 407.1 109.8 405.7 108.2C404.2 106.6 404.4 106.1 408 101.3C410.6 98 413.7 95.3 417.2 93.6C421.7 91.3 423.6 91 432.4 91C440.2 91 442.7 91.3 444.2 92.7ZM405.9 133.9C415 145.5 417 153.4 417 178.3C417 193 416.7 197.1 415.8 196.7C415.1 196.4 410.8 194.9 406.3 193.4L398 190.6V179.6C398 170.5 397.6 167.9 395.9 164.3C393.5 159.2 389.9 156.5 383.9 154.9C379.9 153.9 377.2 154.3 356.3 158.9C343.6 161.6 331.6 164.6 329.7 165.4C324.5 167.5 318.2 173.7 315.3 179.4C312.6 184.7 311.6 194.5 313.2 200C313.9 202.2 313.4 202.9 308.3 206C305.2 207.9 298.1 213.9 292.5 219.2L282.3 229H230.1H177.8L174.8 232C172.2 234.7 171.8 235.6 172.3 238.8C173.5 246.3 171.6 246 224.1 246H271L268.2 251.7C266.6 254.9 264.5 260 263.5 263C262.5 266 261.5 268.8 261.1 269.2C260.7 269.6 221.3 270 173.4 270L86.3 270.1L80.4 267.9C66.6 262.8 54.8 250.8 49 235.7C44.8 224.9 43.7 212.2 44.3 182C44.9 151.3 46.1 146.8 58.5 130.3C59.3 129.2 89.8 129 230.7 129H402L405.9 133.9ZM382.8 181.5L383.1 189.5L370.5 189.2C361.8 188.9 355.5 189.3 350.1 190.4C341 192.3 329 192.5 329 190.9C329 189 332.1 184.4 334.3 183.1C336.9 181.4 375.6 173.1 379.5 173.3L382.5 173.5L382.8 181.5ZM393.5 206.9C415.3 212.3 433.7 224.1 447.6 241.4C467.6 266.4 473.9 300.9 464 331C452.8 364.8 424.7 390 390.2 397.2C376.5 400 357.2 399.4 344.7 395.6C317.3 387.4 295.9 369.3 283.5 343.7C275.9 327.9 274.5 321.2 274.6 301.5C274.6 285.9 274.8 283.8 277.4 275.5C288.7 238.6 317.4 212.5 354.3 205.4C364 203.6 383.1 204.3 393.5 206.9ZM76 283.4C84 286.2 85.6 286.4 102.4 286.8L120.3 287.2L119.8 295.4C119.5 300.1 118.5 305 117.6 306.8C114.7 312.4 112.2 313 92 313C65.9 313 64.8 312.2 64.2 291.1C63.8 279.3 63.9 278.7 65.6 279.5C66.7 280 71.3 281.7 76 283.4ZM467 436.5C481.9 460.5 494.5 481.3 494.9 482.8C495.9 486.9 495.2 489.4 492 492.5C488.7 495.6 483.4 496.1 479.6 493.7C477.9 492.5 423 406.2 423 404.6C423 404.4 426.1 402.3 429.9 400C433.8 397.7 437.4 395.2 438.1 394.4C438.7 393.6 439.4 393 439.6 393C439.8 393 452.1 412.6 467 436.5Z" fill="black"/>
<path d="M76.4 156.1C72.1 157.3 66.4 163.9 65 169.2C64.3 171.7 64 178.2 64.2 185C64.6 198.6 66 201.8 73 205.3C77.4 207.4 78.4 207.5 109.5 207.5C145 207.5 146.4 207.3 149 201C151.1 196 149.8 184.1 146.7 178.7C143.6 173.4 138 168.3 133.1 166.3C128.6 164.4 85.5 155 82.1 155.1C80.6 155.1 78.1 155.6 76.4 156.1ZM103.5 176C113.9 178.3 123.7 180.6 125.2 181.1C128.4 182.4 131.5 185.6 132.8 189L133.8 191.5L106.9 191.2L80 190.9V183.1C80 174.1 80.5 172 82.9 172C83.8 172 93 173.8 103.5 176Z" fill="black"/>
<path d="M175 201C170.8 205.2 171.8 212.1 177 214.7C180.5 216.5 282 216.6 285.3 214.8C288.6 213.1 289.9 210.9 290 206.9C290 204.5 289.3 202.7 287.7 201.2L285.4 199H231.2C178.6 199 176.9 199.1 175 201Z" fill="black"/>
</g>
<defs>
<clipPath id="clip0_2_25">
<rect width="512" height="512" fill="white"/>
</clipPath>
</defs>
</svg>