<svg xmlns="http://www.w3.org/2000/svg" fill="none" viewBox="0 0 512 512">
<g clip-path="url(#clip0_2_15)">
<path d="M156 121.1C132.7 123.2 121.4 126.5 94.5 139.2C84.1 144.2 73 149.4 70 150.8C65.7 152.8 62.3 153.5 54.5 154C37.9 155 33.2 158.7 29.9 173.7C28.5 179.8 27.2 183 25.6 184.5C20.8 189 19.5 192.8 19.7 202.3C20 213.4 21.2 217.6 25 221.8C29 226 30.9 226.9 49 233.6C65.3 239.6 67.6 239.8 71.3 235.6L73.4 233.2L75.6 238.1C78.8 244.9 85.2 251.5 91.9 254.7C96.8 257.1 98.7 257.4 107 257.5C115.2 257.5 117.3 257.1 122 254.9C129 251.6 135.6 245 138.9 238C141.1 233.3 141.5 231.2 141.5 223C141.5 214.7 141.2 212.8 138.7 207.9C135.3 200.9 128.7 194.7 121.2 191.2C113.5 187.7 102.2 187.6 93.7 190.9C82.1 195.5 74 206.7 72.4 220.5C71.8 225.6 71.6 225.9 70 224.5C69.1 223.7 61.7 220.5 53.4 217.5C45.2 214.4 37.9 211.1 37.3 210.2C36.6 209.4 36 206.4 36 203.6C36 199.3 36.5 198.1 39.3 195.3C41.8 192.6 43 190 45 182.2L47.5 172.5L57 171.9C68.1 171.3 71 170.2 101.5 155.7C129.1 142.7 135.5 140.7 155.8 139C181.1 136.8 189.7 140 215.7 160.9C224.6 168 233 174.2 234.2 174.6C235.5 175 246.6 175.4 259 175.5C277.3 175.7 283.7 176.1 293.4 177.9C312.8 181.4 336.5 190.2 339 194.9C340.3 197.4 340.3 215 339 218.4C338.2 220.7 337.5 221 333.7 221C327.2 221 324 223.8 324 229.5C324 236 326.6 238 334.7 238C344.7 238 351.2 234.5 355.1 226.8C356.7 223.6 357 220.8 357 206.5C357 188 356.2 184.9 349.8 179.5C342.9 173.6 321.2 165.5 303.5 162C289.2 159.3 267.6 157.7 253.7 158.3L241.8 158.8L235.7 153.6C200.5 124 186.6 118.3 156 121.1ZM115.5 207.6C123.1 211.2 127.2 222.8 123.5 230.1C121.1 234.8 119.1 236.9 114.8 239.1C101.8 245.7 86.2 233.2 90 219.1C92.2 211 101.1 204.4 108.7 205.4C110.5 205.7 113.5 206.6 115.5 207.6Z" fill="black"/>
<path d="M395.3 125.6C389.6 127.7 381.5 135.1 378.2 141.4L375.5 146.5L375.2 203.2L374.9 260L198.7 260.2L22.5 260.5L17.5 263C10.7 266.3 4.6 272.9 2.1 279.6C0.2 284.4 0 287.3 0 304.8C0 323.8 0.1 324.7 2.6 330C6 337.3 10.2 341.6 17.5 345.1C23.5 348 23.6 348 43.1 348C61.2 348 62.8 347.8 64.4 346.1C67.3 342.9 67.6 337 65 333.7L62.9 331H46.4C27.9 331 25.3 330.4 20.3 324.7C16.4 320.3 15.6 314.7 16.2 298.6C16.7 286.3 18 282.6 23.3 278.6L26.1 276.5L207 276C381.9 275.5 387.9 275.4 389.9 273.6C391.9 271.8 391.9 271 392.2 211.6C392.5 153 392.6 151.4 394.6 148C395.7 146.1 398.1 143.5 400 142.3C403.2 140.1 404.1 140 426.7 140C452.5 140 454.7 140.4 460.8 146.3C465.3 150.6 465.6 151.3 482.1 191.5L496.5 226.5L496.8 242.7L497.2 259H485C475 259 472.3 259.3 469.1 260.9C458.7 266.2 454.3 278.4 459 288.8C463.3 298.3 475.1 305.1 488.7 305.8L497 306.3V312.5C497 317.3 496.5 319.5 494.8 322C491 327.5 487.8 329.2 479.9 329.9C471.1 330.8 468.5 333.1 469.3 339.4C470.2 345.6 471.8 346.5 481.8 346.5C492 346.5 498.1 344.2 504.3 338.2C512.4 330.4 512 333.6 512 274.5V221.8L497.4 186.2C489.3 166.5 481.4 147.9 479.7 144.8C476 137.6 468.7 130.7 461.2 127.2L455.5 124.5L427.5 124.3C404.6 124.1 398.7 124.4 395.3 125.6ZM494.6 278.5C496.3 281.1 495.9 285.2 493.8 287.7C490.5 291.7 474 285.4 474 280.1C474 276.8 476.2 276 484.7 276C492.4 276 493.1 276.2 494.6 278.5Z" fill="black"/>
<path d="M421.3 156.5C415.3 159.5 411.3 164.3 409.4 170.8C407.5 177.1 407.5 214.9 409.4 221.2C411.3 227.7 415.3 232.5 421.3 235.5L426.4 238H454.5C485.4 238 486.2 237.9 487.5 231.9C488.4 228 486.5 223.6 483.4 222.1C481.7 221.4 472.2 221 455.4 221H429.9L427.5 218.5C425 216.1 425 216 425 196.2C425 169.9 424.2 171 441.9 171C453.4 171 455 170.8 457.4 168.9C460.9 166.2 461.1 159.1 457.8 156C455.8 154.2 454.3 154 441 154C427.3 154 426.1 154.2 421.3 156.5Z" fill="black"/>
<path d="M279.4 189.4C264.6 193 254.6 205.1 253.3 220.9C252.7 227.8 252.7 227.9 250.6 226.5C248.9 225.2 240.6 225 197.7 225H146.9L144.5 227.5C142.8 229.1 142 231 142 233.5C142 236 142.8 237.9 144.5 239.5L146.9 242H198H249.1L251.5 239.5C252.9 238.2 254 236.1 254.1 234.8C254.1 233.2 254.6 233.7 255.7 236.8C257.8 242.8 266 251.3 272.8 254.7C277.8 257.2 279.6 257.5 288 257.5C296.4 257.5 298.2 257.2 303.2 254.7C332.5 240.3 327.8 196.8 296.1 189.4C289.4 187.8 286.1 187.8 279.4 189.4ZM292.5 206.1C300.1 208 306 215.8 306 224C306 228 301.8 235.3 298.1 237.7C288.9 243.8 277.2 240.8 272.3 231C271 228.6 270 225.4 270 224C270 216.2 275.5 208.6 282.7 206.3C287.6 204.8 287.4 204.8 292.5 206.1Z" fill="black"/>
<path d="M413.3 249C408.8 250.9 407.8 254.1 408.2 264.9C408.5 273.7 408.8 275.2 410.8 277.2C413.9 280.4 420.5 280.3 423.1 277.1C425.8 273.8 425.9 254.3 423.3 251.1C421.2 248.7 416.5 247.6 413.3 249Z" fill="black"/>
<path d="M112.8 290.6C90.1 296.1 74 316.6 74 340C74 371 101.4 394.7 132.1 390.2C151.9 387.3 168 373.5 173.6 354.5C175.9 346.6 175.9 333.4 173.6 325.5C166 299.6 139.1 284.2 112.8 290.6ZM138.3 309.3C149 314.2 156.1 323.3 158.1 334.9C160.6 348.9 152.3 363.8 138 370.8C133.6 372.9 131.1 373.5 125 373.5C112.1 373.5 101.5 366.9 94.9 354.8C91.8 349 91.5 347.8 91.5 340C91.5 332.7 91.9 330.8 94.3 326.3C103.4 308.8 121.8 301.7 138.3 309.3Z" fill="black"/>
<path d="M397.7 290.5C387.8 293 380.9 296.9 374 303.9C363.5 314.6 359 325.3 359 340C359 359.1 368.8 375.9 384.8 384.4C406.4 395.7 430.4 391.9 446.8 374.6C455.8 365.1 460 354.2 460 340C460 335.3 459.4 329.2 458.6 326.5C454.4 310.7 442 297.4 426.4 291.9C418.6 289.2 405.4 288.6 397.7 290.5ZM424.3 309.3C430.5 312.2 437.1 318.6 440.2 324.9C442.1 328.8 442.5 331.1 442.5 339.5C442.5 348.7 442.3 349.9 439.5 354.8C434.9 363.1 427.2 369.6 418.8 372.1C410.1 374.8 403.9 374.2 395.3 370C375.2 360.1 369.7 334.9 384.1 318.6C394.5 306.8 410.7 303 424.3 309.3Z" fill="black"/>
<path d="M185.7 333.8C184.6 335 184 337.4 184 340.2C184 348.6 177.3 348 267.7 348C347.4 348 347.7 348 349.6 345.9C352.1 343.2 352.1 336.8 349.6 334.1C347.7 332 347.4 332 267.5 332C191.1 332 187.2 332.1 185.7 333.8Z" fill="black"/>
</g>
<defs>
<clipPath id="clip0_2_15">
<rect width="512" height="512" fill="white"/>
</clipPath>
</defs>
</svg>