<svg xmlns="http://www.w3.org/2000/svg" xmlns:xlink="http://www.w3.org/1999/xlink" version="1.1" id="Слой_1" x="0px" y="0px" style="enable-background:new 0 0 500 136.7;" xml:space="preserve" viewBox="0 0 500 136.7">
<style type="text/css">
	.st0{fill-rule:evenodd;clip-rule:evenodd;fill:#0077FF;}
	.st1{fill-rule:evenodd;clip-rule:evenodd;fill:#FF2B42;}
	.st2{fill-rule:evenodd;clip-rule:evenodd;fill:#FFFFFF;}
	.st3{fill-rule:evenodd;clip-rule:evenodd;}
</style>
<g>
	<g>
		<path class="st0" d="M136.7,71.2c0,30.9,0,46.3-9.6,55.9c-9.6,9.6-25,9.6-55.9,9.6h-5.7c-30.9,0-46.3,0-55.9-9.6    C0,117.5,0,102.1,0,71.2v-5.7C0,34.6,0,19.2,9.6,9.6C19.2,0,34.6,0,65.5,0h5.7c30.9,0,46.3,0,55.9,9.6c9.6,9.6,9.6,25,9.6,55.9    V71.2z M136.7,71.2"/>
		<path class="st1" d="M56.6,0c25,0.1,38.4,1,47,9.6c9.6,9.6,9.6,25,9.6,55.9v5.7c0,30.9,0,46.3-9.6,55.9c-8.6,8.5-22,9.5-47,9.6    c-25-0.1-38.4-1-47-9.6C0,117.5,0,102.1,0,71.2v-5.7C0,34.6,0,19.2,9.6,9.6C18.2,1,31.6,0.1,56.6,0z M56.6,0"/>
		<path class="st2" d="M45.8,47.4c-1.7-0.7-3.7,0.4-4,2.2c-1.2,6.1-1.7,12.3-1.7,18.6c0,6.5,0.6,12.8,1.8,18.9c0.3,1.9,2.2,3,4,2.3    c11.4-4.2,21.9-10.6,30.8-18.8c1.3-1.2,1.3-3.3,0-4.5C67.8,57.9,57.2,51.5,45.8,47.4L45.8,47.4L45.8,47.4z M27.9,46.9    c2-10.3,12.7-16.4,22.6-12.8c13.2,4.8,25.3,12.1,35.7,21.6c7.5,6.8,7.5,18.6,0,25.4c-10.3,9.4-22.5,16.7-35.6,21.5    c-9.8,3.6-20.6-2.4-22.6-12.7c-1.5-7.1-2.2-14.4-2.2-21.7C25.9,60.9,26.6,53.8,27.9,46.9z M27.9,46.9"/>
	</g>
	<path class="st3" d="M182.1,97.7h13.7l19.9-54.9h-9.9L189.8,88h-1.5l-15.4-45.2h-10.1L182.1,97.7L182.1,97.7z M267,97.7l-25.2-28.4   L265,42.8h-11.5L234,65.2h-2.3V42.8h-9.3v54.9h9.4V74.2h2.3l20.5,23.5H267L267,97.7z M301.1,97.7h13.7l20.1-54.9h-10l-16,45.2h-1.5   l-15.4-45.2h-10.1L301.1,97.7L301.1,97.7z M345.6,51.5c3.2,0,5.5-2.3,5.5-5.5c0-3.2-2.4-5.5-5.5-5.5c-3.3,0-5.6,2.3-5.6,5.5   C340,49.2,342.3,51.5,345.6,51.5L345.6,51.5z M341,97.7h9V57.2h-8.9L341,97.7L341,97.7z M378,98.5c7.4,0,12.6-3.9,15.3-7.3l1.9,6.5   h6.7V42.8h-8.9v20.6c-3.7-4.4-9.3-7-15-6.9c-11.6,0-19.8,8.8-19.8,21C358.2,89.7,366.3,98.5,378,98.5L378,98.5L378,98.5z    M380.1,90.5c-7.5,0-12.6-5.4-12.6-13c0-7.6,5.1-13,12.6-13c7.6,0,12.8,5.4,12.8,13C392.9,85.1,387.7,90.5,380.1,90.5L380.1,90.5z    M452.1,77c0.2-11.6-9.4-21-21-20.5c-11.8-0.4-21.5,9.2-21,21c-0.4,11.8,9.2,21.5,21,21c8.4,0,16.4-4,19.4-11.6l-8.4-1.4   c-2.4,3.3-6.4,5.1-10.5,4.9c-6.8,0-11.3-4.2-12.2-10.5h32.6C452,79,452.1,78.1,452.1,77L452.1,77L452.1,77z M431.1,64.2   c5.6,0,9.8,3.6,11.3,8.7h-22.5C421.2,67.8,425.8,64.2,431.1,64.2L431.1,64.2z M478.4,98.5c12.7,0,21.6-8.7,21.6-21   c0-12.3-8.9-21-21.6-21c-12.7,0-21.6,8.7-21.6,21C456.8,89.7,465.7,98.5,478.4,98.5L478.4,98.5z M478.4,90.3   c-7.3,0-12.3-5.2-12.3-12.8c0-7.6,5-12.8,12.3-12.8c7.3,0,12.3,5.2,12.3,12.8C490.7,85.1,485.7,90.3,478.4,90.3L478.4,90.3z    M478.4,90.3"/>
</g>
</svg>