<svg xmlns="http://www.w3.org/2000/svg" fill="none" viewBox="0 21.05 512 448.82">
<path d="M270 42.4999L234.5 63.8999L139.5 63.9999C63.6 63.9999 43.5 64.2999 39.5 65.3999C21.3 70.1999 6.2 85.2999 1.4 103.5C0.3 107.6 0 138.1 0 267.1C0 422.6 0 425.9 2 432.2C7.6 450.5 25 465.7 44 469C48.6 469.8 107.7 470 248 469.8L445.5 469.5L450.2 467.3C456.8 464.3 463.5 457.7 466.7 451.1L469.5 445.5L469.8 414.7L470.1 384H488.1H506.2L509.1 381.1L512 378.2V309.3V240.4L508.9 237.4L505.9 234.5L488 234.2L470.1 233.9L469.8 203.7L469.5 173.5L466.8 167.8C463.7 161.2 457.8 155.1 451.2 151.9C446.8 149.7 445.1 149.5 426.3 149.2L406 148.9V120.6C406 97.5999 405.7 91.3999 404.4 86.9999C401.7 77.6999 396.2 71.2999 387 66.3999C384 64.7999 380.5 64.3999 362.1 63.9999L340.8 63.4999L329.4 43.9999C322 31.1999 317.1 23.8999 315.3 22.7999C309.3 18.9999 307.9 19.6999 270 42.4999ZM334.5 97.5999C350.5 124.9 363.7 147.6 363.8 148.1C364 148.6 316.1 149 250.4 149H136.6L220.5 98.4999C266.7 70.6999 304.7 47.9999 305 47.9999C305.3 47.9999 318.6 70.2999 334.5 97.5999ZM145 117.5L92.5 149.1L69.5 148.8C47 148.5 46.4 148.4 40.9 145.9C25.5 138.6 18.3 121.8 24.1 106.5C27 98.6999 34.5 91.0999 42 88.1999C47.4 86.0999 48.8 86.0999 122.5 86.0999L197.5 85.9999L145 117.5ZM380 88.7999C383.7 92.4999 384.2 96.1999 383.8 118.7L383.5 136.8L371.5 116.2C364.9 104.9 358.3 93.3999 356.7 90.7999L354 85.9999H365.6C377 85.9999 377.2 85.9999 380 88.7999ZM30 165.7C33.6 167.4 38.9 169.3 41.8 169.9C45.6 170.7 102 171 242.6 171C414.4 171 438.6 171.2 441.4 172.5C447.4 175.4 447.5 175.8 447.8 206.2L448.1 233.8L414.8 234.3C377.7 234.8 375.9 235 361.5 242C341.8 251.6 327.5 269.1 322 290.5C319.3 301.1 319.3 317.8 322 328.4C328.6 354.1 349.9 375.4 375.6 382C382.5 383.8 386.8 384 415.7 384H448.1L447.8 411.9C447.5 438.5 447.4 440 445.4 442.7C444.3 444.2 441.6 446.1 439.5 446.8C436.5 447.8 396.2 448 241.6 447.8C55.8 447.5 47.3 447.4 42.8 445.7C36.5 443.2 28.5 436 25.2 429.6L22.5 424.5L22.2 293.2C22.1 220.9 22.3 162 22.7 162.2C23.2 162.4 26.4 164 30 165.7ZM490 309V362.1L436.8 361.8C384.6 361.5 383.4 361.5 377.7 359.3C357.1 351.5 343.6 333.6 342.3 312.5C340.6 284.7 360.8 260.6 389 257C392 256.6 416 256.2 442.3 256.1L490 256V309Z" fill="black"/>
<path d="M384.4 278.4C375.6 281.3 368.5 288 364.4 297.5C361.8 303.4 362 316.1 364.7 322.2C367.7 328.8 374.2 335.5 380.9 338.7C388.8 342.6 399.9 342.6 408.2 338.8C419.5 333.5 426.1 323.8 426.8 311.1C427.8 292.3 415 278.1 396.1 277.3C391.6 277.1 386.9 277.6 384.4 278.4ZM399 300.5C405.3 303.8 406.4 311.3 401.3 316.4C395.4 322.3 385 317.7 385 309.3C385.1 304.9 386.5 302.7 390.6 300.5C394.2 298.6 395.4 298.6 399 300.5Z" fill="black"/>
</svg>