<svg xmlns="http://www.w3.org/2000/svg" fill="none" viewBox="0 0 512 512">
<g clip-path="url(#clip0_2_94)">
<path d="M222.6 1.59999C199.9 4.49999 173.5 11.9 151.7 21.5C137.5 27.8 136 29 136 34.5C136 38 136.5 39.3 138.6 40.9C142.3 43.8 145.3 43.5 154.2 39.3L162 35.7L169 40.4L176 45V66.1C176 79.7 176.4 87.9 177.1 89.3C179.7 94.4 183.5 97 191.7 99.7C204.5 103.9 204.6 103.8 174 125.7L148.5 143.9L131.5 144C112.5 144 110 144.7 106 151.2C104.2 154.2 104 156.3 104 173.8C104 189.2 104.3 193.7 105.5 196.1C106.4 197.7 112.1 202.8 118.4 207.5C127.8 214.6 130.3 216 133.4 216C139.9 216 144 209.6 141 204C140.4 202.9 135.5 198.6 130 194.5L120 186.9V173.5V160H137.3C153.1 160 154.8 159.8 158 157.9C169.4 151 212.5 119.2 214.1 116.6C215.6 114.2 216 111.6 216 105.2C216 92.5 213.2 88.7 200.4 84.4L192 81.5V60.1C192 40.4 191.8 38.5 190 35.4C188.8 33.6 186.5 31.3 184.8 30.2L181.7 28.2L188.6 26.1C208.8 19.9 231.7 16.8 256 16.8C266.2 16.8 278.6 17.3 283.5 17.9C304.3 20.6 330.6 27.3 344.6 33.5L349.9 35.9L347 44.6C345.3 49.4 344 54.5 344 55.9C344 57.3 345.3 61.3 347 64.8C350.4 72 350.8 70.6 342 84.2L336 93.4V103.5L335.9 113.5L325.8 121C312.4 130.8 312 131.6 312 146C312 159 313.2 162.3 319.2 166C322.3 167.9 324.3 168 351.8 168H381L396.2 175.6C414.6 184.8 416.9 185.1 427.8 179.6C433.8 176.6 436 176 441.5 176H448V181.8C448 187.4 447.9 187.7 442.9 192.5C433.9 201.2 432 204.5 432 211C432 216.2 431.8 216.8 429.8 217.3C428.5 217.6 421.4 219 414 220.5C406.6 221.9 399.2 223.6 397.5 224.2C394 225.6 383 235.7 378.9 241.4L376 245.3V267.7C376 282.6 376.4 290.9 377.1 292.3C377.8 293.5 385 302.9 393.1 313.1L408 331.8V354.4C408 372.8 408.3 377.7 409.5 380.1C410.4 381.8 417.5 387.9 426.5 394.6L442 406.2L438.7 410.3C437 412.6 431 419 425.5 424.5C364.2 486.3 274.1 510.1 191.2 486.5C127.2 468.2 73 423.8 43.2 365.3C24.9 329.3 16.6 294.9 16.8 255C16.9 229.1 20.5 206.1 28 182.7C30.9 173.8 37.4 157.2 38.6 156.1C38.8 155.8 41.1 157.6 43.5 160L48 164.4V183C48 199.3 48.2 201.9 49.9 204.6C50.9 206.2 59.9 214.1 69.9 222.1C86.1 235 88 236.8 88 239.5C88 242.1 87.3 242.9 82.3 245.5C79 247.2 75.6 249.9 74.3 251.9C72.1 255.2 72 256.2 72 276C72 295.8 72.1 296.9 74.3 300.1C76.1 302.9 81.4 306 106.2 318.5L136 333.5V360.3V387L144 403L152 419V436.2C152 455.5 152.7 458 159.2 462.1C162.1 463.8 163.9 464 174.2 463.8L185.9 463.5L189.4 460.1C192.1 457.4 194.5 452.7 200.2 438.6C207.2 420.9 207.7 420.1 219.1 404.8C231.4 388.4 232.9 385.2 233.1 376C233.3 362.6 232.2 364.1 255.7 344.6C267.4 334.9 277.6 325.7 278.5 324.1C279.7 321.7 280 317.1 280 301.7C280 283.2 279.9 282.1 277.7 279C273.3 272.3 270.6 271.5 250.3 271.2L232.2 270.8L231.6 268.4C230.8 265.4 225.6 262.6 222.4 263.4C215.8 265.1 213.7 274.3 218.3 281C222.6 287.3 225.3 288 245.7 288H264L263.9 301.7V315.5L242.2 333.5C227.5 345.7 220 352.6 218.8 355C217.7 357.2 216.9 362.5 216.4 369.5L215.7 380.5L204.2 396C193 411 192.4 412 185.4 429.5L178.2 447.5L173.1 447.8L168 448.1V430.5V413L160 397L152 381V354.2C152 328 151.9 327.2 149.8 323.9C147.9 321.1 142.6 318 117.8 305.5L88 290.5V276V261.5L93.7 258.5C102.3 254 104 250.8 104 239.6C104 232.5 103.6 229.8 102.1 227.4C101.1 225.8 92.1 217.9 82.1 209.9L64 195.5V176.4V157.3L61.1 153.4C59.5 151.3 55.7 147.1 52.7 144.1L47.2 138.7L51.2 132.1C53.4 128.5 57.2 122.7 59.6 119.3C63 114.5 64 112.3 64 109.1C64 102.1 56.4 98.6 50.8 103C47.6 105.4 35.9 123.4 29.1 136C15 162.5 5.3 193.5 1.5 224C-0.5 240.3 -0.5 271.7 1.5 288C14.4 392.3 92.4 480.2 194 504.8C218.2 510.7 225.8 511.5 257 511.5C282.3 511.5 287 511.2 298.3 509.2C350.3 499.9 395.4 477.2 432.6 441.7C473.8 402.3 498.8 355.3 509.1 297.5C511.2 285.9 511.5 281.5 511.5 256C511.4 231.2 511.2 225.9 509.3 215C502.7 177.3 489.7 144.3 469.7 114.3C458.7 97.9 456.9 96 452.4 96C447.7 96 445.4 97.4 444.1 101C442.8 105 443.8 107.6 449.9 115.9C468.8 141.4 483.8 175.5 490.5 207.7C496.8 238.3 496.6 275.8 489.9 307C486.9 320.7 479 343.9 472.6 357.4C467.3 368.7 454.7 390.5 452.8 391.6C452.3 391.9 445.7 387.5 438 381.8L424.1 371.5L424 348.7C424 333.6 423.6 325.1 422.9 323.7C422.2 322.5 415 313.1 406.9 302.9L392 284.2V268.3V252.4L398.4 246.1L404.8 239.8L421.6 236.4C431.8 234.3 439.5 232.3 441 231.2C445.6 227.8 448 223.1 448 217.7C448 212.8 448.2 212.4 455 205.5C458.8 201.5 462.4 197.1 463 195.6C463.5 194.1 464 187.8 464 181.7C464 169.1 462.7 165.6 456.8 162C454 160.3 451.7 160 441.3 160C429.5 160 428.8 160.1 422.5 163.2L416 166.4L401.5 159.2L387 152H358H329V146.1V140.2L338.5 133.1C351.1 123.7 352 122.1 352 110.1V100.7L358.4 90.6C361.9 85 365.3 79.5 365.9 78.3C367.9 74.4 367.2 66.9 364.2 61L361.4 55.5L363.4 49.2C365.2 43.7 365.7 43 368.1 43C369.5 43 371.9 42.1 373.4 40.9C375.5 39.3 376 38 376 34.5C376 29 374.5 27.8 360.3 21.5C337.5 11.5 312.2 4.49999 288 1.49999C272.5 -0.400008 237.8 -0.300008 222.6 1.59999Z" fill="black"/>
<path d="M411.3 1.39996C401.2 4.69996 392.3 12.7 387.2 23C384.7 28 384.5 29.5 384.5 40C384.5 50.5 384.7 52 387.2 57C392.4 67.4 400 74.4 410.3 78L415.5 79.8L416 110.5C416.5 139.4 416.6 141.2 418.4 142.6C420.9 144.4 427.1 144.4 429.6 142.6C431.4 141.2 431.5 139.4 432 110.4L432.5 79.7L436.7 78.5C446.5 75.6 455.7 67.4 460.8 57C463.3 52 463.5 50.5 463.5 40C463.5 29.3 463.3 28.1 460.6 22.5C456.8 14.8 449.2 7.19996 441.5 3.49996C436.3 0.89996 434.3 0.49996 425.5 0.29996C419.1 0.0999597 414 0.49996 411.3 1.39996ZM432.8 18.6C441.3 22.1 447 30.6 447 40C447 52.9 436.9 63 424 63C403.8 63 393.4 38.8 407.3 24.1C413.7 17.4 424.4 15.1 432.8 18.6Z" fill="black"/>
<path d="M75.3 17.4C65.2 20.7 56.3 28.7 51.2 39C48.7 44 48.5 45.5 48.5 56C48.5 66.5 48.7 68 51.2 73C56.4 83.4 64 90.4 74.3 94L79.5 95.8L80 126.5C80.5 155.4 80.6 157.2 82.4 158.6C84.9 160.4 91.1 160.4 93.6 158.6C95.4 157.2 95.5 155.4 96 126.4L96.5 95.7L100.7 94.5C110.5 91.6 119.7 83.4 124.8 73C127.3 68 127.5 66.5 127.5 56C127.5 45.3 127.3 44.1 124.6 38.5C120.8 30.8 113.2 23.2 105.5 19.5C100.3 16.9 98.3 16.5 89.5 16.3C83.1 16.1 78 16.5 75.3 17.4ZM96.8 34.6C112.1 40.9 115.9 61.3 103.9 72.7C89.3 86.5 65.1 76.3 65 56.2C65 43.2 74.9 33.1 87.8 33C90.7 33 94.7 33.7 96.8 34.6Z" fill="black"/>
<path d="M179.3 185.4C169.2 188.7 160.3 196.7 155.2 207C152.7 212 152.5 213.5 152.5 224C152.5 234.5 152.7 236 155.2 241C160.4 251.4 168 258.4 178.3 262L183.5 263.8L184 294.5C184.5 323.4 184.6 325.2 186.4 326.6C188.9 328.4 195.1 328.4 197.6 326.6C199.4 325.2 199.5 323.4 200 294.4L200.5 263.7L204.7 262.5C214.5 259.6 223.7 251.4 228.8 241C231.3 236 231.5 234.5 231.5 224C231.5 213.3 231.3 212.1 228.6 206.5C224.8 198.8 217.2 191.2 209.5 187.5C204.3 184.9 202.3 184.5 193.5 184.3C187.1 184.1 182 184.5 179.3 185.4ZM200.8 202.6C209.3 206.1 215 214.6 215 224C215 236.9 204.9 247 192 247C171.8 247 161.4 222.8 175.3 208.1C181.7 201.4 192.4 199.1 200.8 202.6Z" fill="black"/>
</g>
<defs>
<clipPath id="clip0_2_94">
<rect width="512" height="512" fill="white"/>
</clipPath>
</defs>
</svg>